<?xml version="1.0" encoding="utf-8"?>
<!-- Generator: Adobe Illustrator 25.4.0, SVG Export Plug-In . SVG Version: 6.00 Build 0)  -->
<svg version="1.1" id="Layer_1" xmlns="http://www.w3.org/2000/svg" xmlns:xlink="http://www.w3.org/1999/xlink" x="0px" y="0px"
	 viewBox="0 0 40 40" style="enable-background:new 0 0 40 40;" xml:space="preserve">
<style type="text/css">
	.st0{fill:#3655A2;}
	.st1{fill:#3C61AB;}
	.st2{fill:#EBEBEB;}
	.st3{fill:#FFFFFF;}
</style>
<g id="layer1" transform="translate(-193.633,-732.11218)">
	<g id="g37" transform="matrix(0.60400616,0,0,0.60400616,83.235735,307.26789)">
		<polygon id="polygon2989" class="st0" points="239.6,762.9 215.8,769.6 192,763 186.7,703.4 245.1,703.4 		"/>
		<polygon id="polygon2991" class="st1" points="215.8,764.5 235.2,759.2 239.6,708.2 215.8,708.2 		"/>
		<polygon id="polygon2993" class="st2" points="215.8,730.4 198.9,730.4 199.5,737.6 215.8,737.6 		"/>
		<polygon id="polygon2995" class="st2" points="215.8,715.5 197.6,715.5 198.2,722.9 215.8,722.9 		"/>
		<polygon id="polygon2997" class="st2" points="215.8,749.3 207.6,747.2 207.2,741.3 203.2,741.3 199.8,741.3 200.8,752.8 
			215.8,757 215.8,757 		"/>
		<polygon id="polygon3005" class="st3" points="226,722.9 225.4,730.4 215.8,730.4 215.8,737.6 224.8,737.6 224,747.2 215.8,749.3 
			215.8,757 230.8,752.8 230.8,751.5 232.6,732.3 232.8,730.4 234.2,715.5 215.8,715.5 215.8,722.9 		"/>
	</g>
</g>
</svg>
