<?xml version="1.0" encoding="utf-8"?>
<!-- Generator: Adobe Illustrator 25.4.0, SVG Export Plug-In . SVG Version: 6.00 Build 0)  -->
<svg version="1.1" id="Layer_1" xmlns="http://www.w3.org/2000/svg" xmlns:xlink="http://www.w3.org/1999/xlink" x="0px" y="0px"
	 viewBox="0 0 40 40" style="enable-background:new 0 0 40 40;" xml:space="preserve">
<style type="text/css">
	.st0{fill:#092E20;}
</style>
<g>
	<path class="st0" d="M18.6,0h6.5v30.3c-3.4,0.6-5.8,0.9-8.5,0.9c-8,0-12.1-3.6-12.1-10.5c0-6.7,4.4-11,11.3-11
		c1.1,0,1.9,0.1,2.8,0.3L18.6,0z M18.6,15.2c-0.8-0.3-1.4-0.3-2.2-0.3c-3.3,0-5.2,2-5.2,5.6c0,3.5,1.8,5.4,5.2,5.4
		c0.7,0,1.3,0,2.2-0.2L18.6,15.2z M35.5,10.1v15.2c0,5.2-0.4,7.7-1.5,9.9c-1.1,2.1-2.5,3.4-5.4,4.8l-6.1-2.9
		c2.9-1.4,4.3-2.5,5.2-4.4c0.9-1.9,1.2-4,1.2-9.7V10.1H35.5z M29,0h6.5v6.7H29V0z"/>
</g>
</svg>
