<?xml version="1.0" encoding="utf-8"?>
<!-- Generator: Adobe Illustrator 25.4.0, SVG Export Plug-In . SVG Version: 6.00 Build 0)  -->
<svg version="1.1" id="Layer_1" xmlns="http://www.w3.org/2000/svg" xmlns:xlink="http://www.w3.org/1999/xlink" x="0px" y="0px"
	 viewBox="0 0 40 40" style="enable-background:new 0 0 40 40;" xml:space="preserve">
<style type="text/css">
	.st0{fill:#394D54;}
	.st1{clip-path:url(#SVGID_00000138536714652868020770000004243672266705526166_);}
	.st2{fill:#00ACD3;}
	.st3{fill:#20C2EF;}
	.st4{stroke:#394D54;stroke-width:0.3914;stroke-miterlimit:1.0037;}
	.st5{fill:#17B5EB;}
	.st6{fill-opacity:0.17;}
	.st7{fill:#D4EDF1;}
	.st8{fill-opacity:8.500000e-02;}
	.st9{fill:none;stroke:#394D54;stroke-width:0.8534;stroke-linecap:round;stroke-miterlimit:5.4354;}
</style>
<g transform="matrix(.679423 0 0 .679423 -2.086149 13.781817)">
	<path class="st0" d="M37.1,3h5.3v5.4h2.7c1.2,0,2.5-0.2,3.7-0.6C49.3,7.6,50,7.3,50.5,7c-0.7-1-1.1-2.2-1.3-3.4
		c-0.2-1.6,0.2-3.8,1.3-5.1l0.6-0.6l0.7,0.5c1.7,1.3,3.1,3.2,3.3,5.3c2-0.6,4.4-0.5,6.1,0.6l0.7,0.4l-0.4,0.7
		c-1.5,2.9-4.6,3.8-7.7,3.7c-4.6,11.4-14.5,16.8-26.6,16.8c-6.2,0-12-2.3-15.2-7.9c-0.2-0.3-0.4-0.7-0.5-1.1
		c-1.1-2.4-1.5-5.1-1.2-7.8l0.1-0.8h4.5V3h5.3v-5.3h10.6v-5.3h6.3L37.1,3"/>
	<g>
		<defs>
			<path id="SVGID_1_" d="M20.6-7.1V3.5h-5.1v5.3h-4.3l0,0.5c-0.3,2.9,0.2,5.6,1.4,7.8l0.4,0.7c0.2,0.4,0.5,0.8,0.8,1.2
				c0.3,0.4,0.4,0.6,0.6,0.9C17.5,23.3,22,25,27.3,25c11.7,0,21.6-5.2,26-16.8c3.1,0.3,6.1-0.5,7.5-3.1c-2.2-1.3-5-0.9-6.6,0
				l4.3-12.1L41.9,3.5h-5.3V-7.1H20.6z"/>
		</defs>
		<clipPath id="SVGID_00000074436444864514830510000015775665426196441791_">
			<use xlink:href="#SVGID_1_"  style="overflow:visible;"/>
		</clipPath>
		
			<g transform="matrix(.184659 0 0 .184659 3.070472 -11.997864)" style="clip-path:url(#SVGID_00000074436444864514830510000015775665426196441791_);">
			<g id="B">
				<g id="C" transform="translate(0 -22.866)">
					<path class="st2" d="M154.9,23h24.8v24.8h-24.8V23z"/>
					<path class="st3" d="M154.9,51.6h24.8v24.8h-24.8V51.6z"/>
					<path id="D" class="st4" d="M157.9,45.8V25.1 M161.6,45.8V25.1 M165.4,45.8V25.1 M169.1,45.8V25.1 M172.9,45.8V25.1
						 M176.6,45.8V25.1"/>
					<g>
						<path id="D_00000072993221131251666860000011382237859872722589_" class="st4" d="M157.9,74.3V53.7 M161.6,74.3V53.7
							 M165.4,74.3V53.7 M169.1,74.3V53.7 M172.9,74.3V53.7 M176.6,74.3V53.7"/>
					</g>
				</g>
				<g transform="matrix(1 0 0 -1 22.866 4.572651)">
					<g id="C_00000143581210610410634280000017632942164852533385_" transform="translate(0 -22.866)">
						<path class="st2" d="M183.4,76.4h24.8V51.6h-24.8V76.4z"/>
						<path class="st3" d="M183.4,47.8h24.8V23h-24.8V47.8z"/>
						<path id="D_00000147901456767110957400000012209137818035667330_" class="st4" d="M186.5,53.7v20.6 M190.2,53.7v20.6
							 M193.9,53.7v20.6 M197.7,53.7v20.6 M201.5,53.7v20.6 M205.2,53.7v20.6"/>
						<g>
							<path id="D_00000088847641306404618250000012422450097962444684_" class="st4" d="M186.5,25.1v20.6 M190.2,25.1v20.6
								 M193.9,25.1v20.6 M197.7,25.1v20.6 M201.5,25.1v20.6 M205.2,25.1v20.6"/>
						</g>
					</g>
				</g>
			</g>
			<g>
				<g id="B_00000183230088035311665660000015062265018058384563_">
					<g id="C_00000175323886867939999780000004411104556066841744_" transform="translate(0 -22.866)">
						<path class="st2" d="M40.5,80.2h24.8V105H40.5V80.2z"/>
						<path class="st3" d="M40.5,108.8h24.8v24.8H40.5V108.8z"/>
						<path id="D_00000062185415473410937780000001034966671638742460_" class="st4" d="M43.5,102.9V82.3 M47.3,102.9V82.3
							 M51,102.9V82.3 M54.8,102.9V82.3 M58.5,102.9V82.3 M62.2,102.9V82.3"/>
						<g>
							<path id="D_00000108297842512132335190000000105618701473529222_" class="st4" d="M43.5,131.5v-20.6 M47.3,131.5v-20.6
								 M51,131.5v-20.6 M54.8,131.5v-20.6 M58.5,131.5v-20.6 M62.2,131.5v-20.6"/>
						</g>
					</g>
					<g transform="matrix(1 0 0 -1 22.866 4.572651)">
						<g id="C_00000128449780140393351260000013900649642300995465_" transform="translate(0 -22.866)">
							<path class="st2" d="M69.1,133.6h24.8v-24.8H69.1V133.6z"/>
							<path class="st3" d="M69.1,105h24.8V80.2H69.1V105z"/>
							<path id="D_00000092444382034752454310000018048859618607294611_" class="st4" d="M72.1,110.9v20.6 M75.8,110.9v20.6
								 M79.6,110.9v20.6 M83.4,110.9v20.6 M87.1,110.9v20.6 M90.8,110.9v20.6"/>
							<g>
								<path id="D_00000096022377745172649660000004909889297587934114_" class="st4" d="M72.1,82.3v20.6 M75.8,82.3v20.6
									 M79.6,82.3v20.6 M83.4,82.3v20.6 M87.1,82.3v20.6 M90.8,82.3v20.6"/>
							</g>
						</g>
					</g>
				</g>
			</g>
			<g>
				<g id="B_00000031894642842961755070000015376267503601479863_">
					<g id="C_00000029021626779819201800000000526821047102069915_" transform="translate(0 -22.866)">
						<path class="st2" d="M97.7,80.2h24.8V105H97.7V80.2z"/>
						<path class="st3" d="M97.7,108.8h24.8v24.8H97.7V108.8z"/>
						<path id="D_00000096769580214756280830000005582471848297702539_" class="st4" d="M100.7,102.9V82.3 M104.4,102.9V82.3
							 M108.2,102.9V82.3 M111.9,102.9V82.3 M115.7,102.9V82.3 M119.4,102.9V82.3"/>
						<g>
							<path id="D_00000142155322506582874730000018032240860478365100_" class="st4" d="M100.7,131.5v-20.6 M104.4,131.5v-20.6
								 M108.2,131.5v-20.6 M111.9,131.5v-20.6 M115.7,131.5v-20.6 M119.4,131.5v-20.6"/>
						</g>
					</g>
					<g transform="matrix(1 0 0 -1 22.866 4.572651)">
						<g id="C_00000152969841590541492660000011979101067783015318_" transform="translate(0 -22.866)">
							<path class="st2" d="M126.3,133.6H151v-24.8h-24.8V133.6z"/>
							<path class="st3" d="M126.3,105H151V80.2h-24.8V105z"/>
							<path id="D_00000023988506335281692260000013293263828073616053_" class="st4" d="M129.3,110.9v20.6 M133,110.9v20.6
								 M136.8,110.9v20.6 M140.5,110.9v20.6 M144.3,110.9v20.6 M148,110.9v20.6"/>
							<g>
								<path id="D_00000131366095074222162690000016056563928972867773_" class="st4" d="M129.3,82.3v20.6 M133,82.3v20.6
									 M136.8,82.3v20.6 M140.5,82.3v20.6 M144.3,82.3v20.6 M148,82.3v20.6"/>
							</g>
						</g>
					</g>
				</g>
			</g>
			<g>
				<g id="B_00000109718869970258116240000003987821787930648242_">
					<g id="C_00000003079464473498305210000003369914179368217240_" transform="translate(0 -22.866)">
						<path class="st2" d="M154.9,80.2h24.8V105h-24.8V80.2z"/>
						<path class="st3" d="M154.9,108.8h24.8v24.8h-24.8V108.8z"/>
						<path id="D_00000124128282642227696220000013549936651671623837_" class="st4" d="M157.9,102.9V82.3 M161.6,102.9V82.3
							 M165.4,102.9V82.3 M169.1,102.9V82.3 M172.9,102.9V82.3 M176.6,102.9V82.3"/>
						<g>
							<path id="D_00000103950904333812180890000000602988755407631033_" class="st4" d="M157.9,131.5v-20.6 M161.6,131.5v-20.6
								 M165.4,131.5v-20.6 M169.1,131.5v-20.6 M172.9,131.5v-20.6 M176.6,131.5v-20.6"/>
						</g>
					</g>
					<g transform="matrix(1 0 0 -1 22.866 4.572651)">
						<g id="C_00000031890219725152717000000015412397238757630115_" transform="translate(0 -22.866)">
							<path class="st2" d="M183.4,133.6h24.8v-24.8h-24.8V133.6z"/>
							<path class="st3" d="M183.4,105h24.8V80.2h-24.8V105z"/>
							<path id="D_00000029038804270927154860000005756368766445018558_" class="st4" d="M186.5,110.9v20.6 M190.2,110.9v20.6
								 M193.9,110.9v20.6 M197.7,110.9v20.6 M201.5,110.9v20.6 M205.2,110.9v20.6"/>
							<g>
								<path id="D_00000101806200084554847710000013258723519713784212_" class="st4" d="M186.5,82.3v20.6 M190.2,82.3v20.6
									 M193.9,82.3v20.6 M197.7,82.3v20.6 M201.5,82.3v20.6 M205.2,82.3v20.6"/>
							</g>
						</g>
					</g>
				</g>
			</g>
			<path class="st5" d="M277,92c1.9-14.9-9.2-26.6-16.1-32.2c-8,9.2-9.2,33.4,3.3,43.5c-7,6.2-21.7,11.8-36.7,11.8H42.5
				c-1.5,15.7,0,91.4,0,91.4h271.3l-1.2-114.3C300.8,85.4,285.7,87.6,277,92"/>
			<path class="st6" d="M42.5,135.3v71.3h271.3v-71.3"/>
			<path class="st7" d="M139.1,200.1c-16.9-8-26.2-19-31.4-30.9l-51.4,2.2l26.3,35L139.1,200.1"/>
			<path class="st8" d="M278.2,91.4L278.2,91.4c-26.1,33.7-63.5,63-103.6,78.4c-35.8,13.8-67.1,13.8-88.6,2.8
				c-2.3-1.3-4.6-2.8-6.9-4.1c-15.8-11-24.7-29.3-23.9-53.4H42.5v91.4h271.3v-120h-31.3L278.2,91.4z"/>
		</g>
	</g>
	<path class="st9" d="M13.6,19.5c3.3,0.2,6.8,0.2,9.8-0.7"/>
	<path class="st7" d="M26.7,17.1c0,0.7-0.6,1.3-1.3,1.3c-0.7,0-1.3-0.6-1.3-1.3c0-0.7,0.6-1.3,1.3-1.3l0,0
		C26.1,15.9,26.7,16.4,26.7,17.1z"/>
	<path class="st0" d="M25.7,16.3c-0.1,0.1-0.2,0.2-0.2,0.3c0,0.2,0.2,0.4,0.4,0.4c0.1,0,0.3-0.1,0.3-0.2c0,0.1,0.1,0.2,0.1,0.3
		c0,0.5-0.4,0.9-0.9,0.9c-0.5,0-0.9-0.4-0.9-0.9s0.4-0.9,0.9-0.9C25.5,16.2,25.6,16.2,25.7,16.3L25.7,16.3z M3.1,13.2h58.7
		c-1.3-0.3-4-0.8-3.6-2.4c-2.3,2.7-7.9,1.9-9.3,0.6c-1.6,2.3-10.7,1.4-11.4-0.4c-2,2.3-8.1,2.3-10.1,0c-0.6,1.8-9.8,2.7-11.4,0.4
		c-1.4,1.3-7,2.1-9.4-0.6C7.1,12.5,4.3,12.9,3.1,13.2"/>
</g>
</svg>
