<?xml version="1.0" encoding="utf-8"?>
<!-- Generator: Adobe Illustrator 25.4.0, SVG Export Plug-In . SVG Version: 6.00 Build 0)  -->
<svg version="1.1" id="Layer_1" xmlns="http://www.w3.org/2000/svg" xmlns:xlink="http://www.w3.org/1999/xlink" x="0px" y="0px"
	 viewBox="0 0 40 40" style="enable-background:new 0 0 40 40;" xml:space="preserve">
<style type="text/css">
	.st0{fill:#020203;}
</style>
<g>
	<g>
		<path class="st0" d="M12,34c-1.5-1.2-3.1-2.4-4.3-4c-2.4-2.8-4.2-6.1-5.4-9.7c-0.7-2.2-1-4.6-1.9-6.8c-1-1.5,0.1-3.3,1.9-3.7
			c0.7-0.1,2.1-0.9,0.4-0.3c-1.5,1-1.6-1-0.1-1c1-0.1,1.3-1,1-1.8c-1-0.7,2.7-1.5,0.7-2.5C2.5,2,7.2,1.6,6,4
			C5.7,5.8,9.3,3.7,8.6,5.8c0.9,1,3.1,0.3,3.1,1.6c1.2,0.1,1.6,1,2.8,1.2c1.2,0.6,3.4,1,3.7,2.4c-1.2,0.9-4-1.9-4,0.6
			c0.3,3.9,0.3,7.9,1.6,11.4c0.6,2.2,2.2,4,3.7,5.6c1.3,1.6,3.3,2.8,5.2,3.9c1.6,0.7,3.6,1.3,5.4,1.6c0.7-0.6,2.1-2.7,3.3-1.8
			c0,1-2.4,2.1-0.1,1.9c1.3-0.4,2.2,1,3.3-0.3c1,1.2,4-0.7,3.4,1.6c-0.9,0.6-2.4,0.3-3.3,1c-1.5-0.7-2.8,0.7-4.5,0.4
			c-1.9,0.3-3.9,0.4-5.8,0.4c-3.1-0.3-6.4-0.3-9.5-1.5C15.1,35.9,13.5,34.9,12,34L12,34z M14.7,35.2c1.6,0.7,3.3,1.5,5.1,1.8
			c3,0.4,5.9,1,8.8,0.4c-1.3-0.6-2.7,0.3-4-0.4c-1.6,0.3-3.3-0.1-4.9-0.3c-1.8-0.7-3.7-1.3-5.5-2.4c-2.1-0.7,1,1,1.6,1.2
			c1.3,0.7-1.5-0.4-1.8-0.7c-1-0.6-1.2-0.4-0.1,0.1C14.2,34.9,14.4,35,14.7,35.2L14.7,35.2z M11.5,32.9c1.6,0.6,0-1.2-0.7-1
			c-0.3-0.6-1.2-0.9-0.6-1.2C9,31.2,9,29.2,8.4,29.4c-1.2-0.4-0.4-1.8-1.9-2.7c-0.1-0.9-1.5-1.6-1.9-3c-0.1-0.7-1.5-2.7-0.7-0.9
			c0.7,1.8,1.9,3.3,3,4.9c0.7,1.5,1.8,3,3.1,3.9C10.3,32.1,10.8,32.8,11.5,32.9L11.5,32.9z M6.8,27.7C6.9,27.6,7.1,28.3,6.8,27.7z
			 M13.5,33.5C13.8,33.4,12.9,33.4,13.5,33.5z M14.4,34C14.2,33.5,13.9,34.1,14.4,34z M15.4,34.4C16,33.8,14.7,34,15.4,34.4z
			 M17.3,35.5C17.6,34.9,16.3,35.2,17.3,35.5z M13.6,32.9C14.5,32.4,12.6,32.9,13.6,32.9z M14.5,33.2C14.5,33.1,14.2,33.4,14.5,33.2
			z M18.7,35.9c0.6,0.4,3.9,0.9,1.9,0.1C20.2,36.1,16.7,35,18.7,35.9z M12.1,30.9C12,30.6,11.1,30.4,12.1,30.9z M14.1,31.9
			C14.5,31.6,13,31.6,14.1,31.9z M15.5,32.9C16.3,32.7,14.5,32.7,15.5,32.9z M11.2,30c0.7,0.6,3.1,0.1,1.2-0.3
			c-0.9-0.4-2.8-0.7-1.5,0.3H11.2L11.2,30z M16.7,33.2C17,32.7,15.4,32.9,16.7,33.2z M15.1,31.9c1.9,0.6-1.6-1.2-0.4-0.1l0.3,0.1
			H15.1L15.1,31.9z M18.4,33.8C20.2,33.8,16.7,33.5,18.4,33.8z M10.6,28.9C10.5,28.6,10.2,28.9,10.6,28.9z M21.3,35.5
			C21.5,34.9,20.7,35.9,21.3,35.5z M13.8,30.7C13.6,30.4,13.2,30.7,13.8,30.7z M10.8,28.6C11.8,28.6,9.5,28.2,10.8,28.6z M7.4,26.4
			C7.2,26,6.3,25.5,7.4,26.4z M16.4,32.2C16.1,31.9,16.3,32.2,16.4,32.2z M21.9,35.6C21.9,35.3,21.6,35.8,21.9,35.6z M15.8,31.6
			C16,31.3,15,31.6,15.8,31.6z M11.7,29.1C12.4,28.9,10.5,28.5,11.7,29.1z M18.8,33.4C20,32.9,17.6,33.2,18.8,33.4z M15.1,30.9
			c1.3,0.1-1.6-0.9-0.3-0.1L15.1,30.9z M19.9,33.8c1.3-0.7,0.9,1.8,2.2,0.1c1.3-0.9-1.2,1.2,0.4,0.1c1.2-0.7,2.8,0.3,4,0.7
			c0.7,0,1.5,0.7,2.4,0.3c1.5-0.4-3-0.6-1.8-1.3c-1.3,0.4-2.4-0.4-3.1-1.3c-1.6-0.3-3.4-1.2-4.2-2.5c-0.3-0.6,0.4,0.1-0.3-0.7
			c-0.9-0.9-1.5-1.8-2.1-2.8c-0.7-0.4-0.9-1.6-0.9,0c0-1-0.9-1.6-1.2-1.3c0-0.9,1-0.4,0.3-1.2c-0.1-1-0.6-2.1-0.7-3.1
			c-0.3-0.6,0-1.6-0.7-0.4c-0.3,1.3-0.1-1.6,0.3-0.6c0.6-0.9-0.1-0.9-0.3-0.7c0.3-0.7,0.3-1.9-0.1-1.5c0.1-0.9,0.3-3.1-0.3-2.8
			c0.3-0.9,0.7-4.2-0.9-2.8c-0.6,0-1.8,0.3-2.2,0.4c1.6,0.9-0.1,0.3-0.9,0.1c-0.1,0.9-0.7,0.4-1.6,0.4c1.3,0.1-0.6,1.3-1.3,0.9
			c-1,0.4,0.9,1.6,0,2.1c0.1,0.6-1.5-0.1-1.3,1c-0.9-0.4-0.1,1.5,0.3,0.9c1.6,0.4,1.2,1.5,1.2,2.4c-0.3,0.6-1.3-1.3-0.3-1.2
			c-0.9-1.3-0.9-0.4-1.6,0.1c-0.1,0,1.8,0.9,0.6,1.3c1,0.1,1,1.2,1.3,1.8c0.6,0.7,0.4-0.7,1.3,0c-0.4-0.7-2.7-2.1-0.9-1.6
			c0-0.7-0.3-1.3,0.1-1.3c0.4-0.9-0.6,2.4,0.6,1.2c0.3-0.1,0.4-0.9,1,0.1c0.9,0.9,0.3,1.5-0.9,0.7c0.1,0.7,1.6,1,1.3,2.1
			c0.3,1,0.6,0.6,1,0.6c0.3,0.9,0.4,0.3,0.4-0.1c1.2,0.3,0.9,1,1.3,1.5c0.9,0.4-1.2-2.5,0.3-0.9c1.5,1.3,0.6,1.9-0.7,1.6
			c0.9,0,1.2,1.2,2.2,1c1,0.4,1.6,2.2,0,1.5c-0.6-0.4-2.7-1.2-0.9-0.1c1.5,0.7,2.8,1.2,4.3,2.1c1,0.7,1.5,1.6,1.9,1.8
			c-0.9,0.4-2.7-0.3-1.3-0.6c-0.9-0.1-1.8-0.6-1,0.4c0.7,0.6,2.4,0.4,2.7,0.6c-0.3,0.6-0.7,0.6,0,0.7C18.8,33.5,19.9,33.7,19.9,33.8
			L19.9,33.8z M18.2,29.2c-0.4-0.4-0.6-1.5-0.1-0.6C18.4,28.6,19,30.1,18.2,29.2z M23.6,32.7C23.9,32.7,23.6,32.8,23.6,32.7z
			 M17.5,27.9C17.5,27.2,17.6,28.5,17.5,27.9z M16.9,27.2C16.3,26,17.8,27.6,16.9,27.2z M10.5,22.7C10.8,22.7,10.6,23.3,10.5,22.7z
			 M15.5,25.5C15.8,24.6,15.8,26.3,15.5,25.5z M12,23C11.7,22.5,12.4,23.4,12,23z M15.1,24c-0.6-1.3,0.4-0.7,0.1,0.1L15.1,24z
			 M9.6,20.3c-0.3-0.4-0.7-1.6-0.6-2.1c0.1,0.6,1.3,2.7,0.6,0.9c-0.9-1.5,1,0.4,1.2,0.9c0.1,0.4-0.4-0.1-0.1,0.7
			C10,19.9,10.3,21.4,9.6,20.3L9.6,20.3z M8,19.3C8.1,18.2,8.4,19.9,8,19.3z M8.7,19.4C9.2,18.7,9.3,20.6,8.7,19.4z M6.9,18.1
			c-0.6-0.6-1-1.2,0-0.4c0.4,0-0.9-1.3,0.1-0.4C8.1,17.5,7.7,19.1,6.9,18.1L6.9,18.1z M7.8,18.1C8.3,17.6,8.1,18.4,7.8,18.1z
			 M8.4,18.2C8,17.2,9.2,18.7,8.4,18.2z M7.4,17.2c-1.8-1.6,2.2,0.9,0.3,0.3L7.4,17.2z M12.4,20.2c-0.7-0.4-0.1-3.3,0-1.3
			c0.7-0.3,0,1,0.6,1C13,20.6,12.7,20.9,12.4,20.2L12.4,20.2z M14.4,21.4C14.5,20.5,14.5,21.8,14.4,21.4z M14.1,20.9
			C14.2,20.6,14.1,21.4,14.1,20.9z M7.7,16.6C6.5,15,11.1,18.2,8.4,17C8.1,16.9,7.8,16.9,7.7,16.6z M11.4,18.5
			C11.2,17.2,11.5,18.8,11.4,18.5z M14.1,20.3C14.4,19.6,14.2,20.9,14.1,20.3z M7.8,16c0.7-0.1,2.8,1.2,0.9,0.4
			C8.4,16.2,8,16.3,7.8,16z M13.8,19c0-1.3,0.4-0.9,0,0.1V19z M8.3,15.6c0.3-0.4-0.7-1.9,0.1-0.4c0.4,0.3,1,0.4,0.4,0.6
			C10,16.6,8.7,15.9,8.3,15.6L8.3,15.6z M13.5,18.5C13.6,16.9,13.6,19.4,13.5,18.5z M7.7,14.1C8,13.9,7.8,14.4,7.7,14.1z M9,14.8
			C9.5,14.1,9.8,15.7,9,14.8z M12.9,16.9C12.9,16.6,12.9,17.3,12.9,16.9z M12.6,16.5C12.1,15.1,13.2,17.2,12.6,16.5z M12.3,15.6
			C12.3,15.1,12.6,16.3,12.3,15.6z M12.9,14.8c-0.3-0.6,0.4-2.8,0.6-1.5c-0.4,1-0.1,1.6,0.1,0.3C14.1,12.4,13.5,15.7,12.9,14.8z
			 M13.3,11.5C13.5,11.4,13.3,11.8,13.3,11.5z M12.4,29.2C12.3,29.1,12.4,29.4,12.4,29.2z M14.4,30.1c1,0.3,1-0.1,0.1-0.3
			c-0.4-0.4-2.1-0.9-0.6,0C13.8,30.1,14.1,30.1,14.4,30.1L14.4,30.1z M10.6,27.7c0.6,0.4,2.1,1.2,0.7,0.1c0.4-0.6-0.9-0.7-0.4-1.2
			c-1-0.7-0.9-0.6-0.1-0.6c-1.3-0.6,0.1-0.6,0.1-0.9c-0.4-0.1-2.5-0.9-1.3,0c-1.2-0.6-0.3,0.3-0.6,0.1c-1.2-0.3,1,0.9-0.1,0.6
			c0.7,0.6,1.9,1.5,0.3,0.6C9,27,10.3,27.4,10.6,27.7L10.6,27.7z M12.6,28.8C15,29.7,11.4,27.9,12.6,28.8z M22.5,34.9
			C22.5,34.4,22.2,35.3,22.5,34.9z M23.6,35.3c0.6-0.6,0,0.9,0.9-0.1c0-0.7,0-1-1-0.3C23.1,35,23,35.6,23.6,35.3L23.6,35.3z
			 M7.4,25.2C7.2,24.5,6.2,24.5,7.4,25.2z M8.4,25.8C8.1,25.2,7.1,25.2,8.4,25.8z M14.7,29.5c0.6,0.6,2.8,0.4,0.7,0
			C15.1,29.2,13.5,29.4,14.7,29.5z M23.1,34.9C24,34.1,22.2,35.2,23.1,34.9z M25.1,36.2C25.1,35.9,24.6,36.2,25.1,36.2z M25.1,35.8
			C26.1,34.7,24,35.9,25.1,35.8z M4.7,23c-0.9-1.2-0.6-1.8-1.3-2.8c-0.1-0.7-1.5-2.5-0.6-0.7C3.4,20.5,3.5,22.2,4.7,23L4.7,23z
			 M24.8,35.5C26.7,34.3,24,34.9,24.8,35.5z M26.2,36.1C27.1,35.2,25.7,35.9,26.2,36.1z M7.1,23.7C7.4,23.4,6.3,23.7,7.1,23.7z
			 M26,35.6c0.9-0.6-0.1-0.4-0.1,0H26z M13.5,27.7C13.5,27.4,13,27.9,13.5,27.7z M14.2,28.2C13.9,27.7,13.9,28.3,14.2,28.2z
			 M27.4,36.1c1.2-0.9-0.7-0.1-0.3,0.1L27.4,36.1z M27,35.8C27.9,35,26,36.2,27,35.8z M29.2,37.4C29.8,37,28.5,37.3,29.2,37.4z
			 M7.7,23.4c0.9,0.1,3.4,2.1,1.9,0.1c-0.7-0.3-0.3-2.1-1-1.8c0.6,0.9,0.4,1.3-0.7,0.7c-1.3-0.7-0.7,0.3-0.4,0.6
			C6.9,23.3,7.8,23.4,7.7,23.4L7.7,23.4z M3.7,20.3c0.1-0.6-1.5-3.6-0.7-1.5C3.2,19.4,3.2,20.2,3.7,20.3z M10.9,24.8
			C10.5,24.5,10.9,24.8,10.9,24.8z M12,25.1C12,24.5,10.8,24.8,12,25.1z M21.5,31C21.3,30.6,20.7,31,21.5,31z M21.9,31.5
			C21.9,31.2,21.6,31.5,21.9,31.5z M25.7,33.7C26.1,33.5,25.2,33.7,25.7,33.7z M5.7,20.9C6.8,20.5,4.5,20.6,5.7,20.9z M20.6,30.3
			C20.6,29.7,20,30.4,20.6,30.3z M5.3,19.9C5.9,19.7,4.7,19.7,5.3,19.9z M7.2,20.9C7.2,20.6,7.1,20.9,7.2,20.9z M30.7,35.3
			c0.9-0.1,2.8,0.4,3.1-0.3c-1,0-3.6-0.7-3.7,0.1h0.3L30.7,35.3L30.7,35.3z M7.8,21.1C7.8,20.3,7.2,21.1,7.8,21.1z M2.8,17.5
			C2.5,16.2,1.9,17.3,2.8,17.5z M4,17.8C4,17.3,2.9,17.5,4,17.8z M4.7,18.1C4.4,17.9,4.5,18.4,4.7,18.1z M9,20.9
			C9.2,20.8,8.6,20.8,9,20.9z M4.3,17.3C4.1,16.5,2.8,17.2,4.3,17.3z M1.7,15.9C1.7,15.3,1.4,16,1.7,15.9z M2,15.6
			C2,15,1.7,15.6,2,15.6z M4.1,16.7C5,16.5,2.5,16,4,16.7H4.1z M31.3,33.5C31.9,32.9,30.6,33.4,31.3,33.5z M34.6,35.2
			C34.9,34.6,34.1,35.3,34.6,35.2z M4.3,15.7C4.4,15,3.7,15.9,4.3,15.7z M1.4,13.8c-0.1-0.9-0.1-2.5,1.3-1.9
			c-1.9,0.4,1.3,2.5,0.9,0.9c0.9,0,1.6-0.4,1.2,0.3c1.6-0.1,2.8-1.6,4.3-1.3c1.2-0.1,2.5-0.3,3.9-0.7c1-0.1,2.1-1.2,1.5-1.9
			C13,8.9,11.4,9,9.8,9.5C8,9.9,6.3,10.5,4.4,11c-1.8,0.3,0.3,0.6-0.1,0.7c-0.9,0.3,1,0.6-0.1,0.9c-0.7-0.1-1.6-0.4-1.2-1.2
			C1.4,11.2-0.1,12,1.4,13.8L1.4,13.8L1.4,13.8z M5.6,11.5c0.4-1.5,2.2,1.2,0.6,0.1C6,11.7,5.7,11.5,5.6,11.5z M5.6,11
			C6.2,10.5,5.9,11.1,5.6,11z M6.3,11c0-0.7,1.6,0.3,0.3,0.3L6.3,11z M7.4,10.5C7.8,10.1,7.5,10.8,7.4,10.5z M7.7,10.4
			c0.6-0.7,3.4-0.4,1.3,0C8.4,9.8,8.1,10.5,7.7,10.4z M11.4,9.8C11.4,7.7,13.3,10.5,11.4,9.8z M12.4,9.8c0.4-1,1.5-0.4,0.1-0.1
			C12.7,9.6,12.6,10.1,12.4,9.8z M4,15.1C5,14.4,2.6,14.5,4,15.1z M4.7,15.4C5.1,15,3.8,15.3,4.7,15.4z M2.2,13.6
			C2.9,13,1.4,13.3,2.2,13.6z M36.5,35C36.7,34.4,36.1,35.3,36.5,35z M33.1,32.7C33.2,32.1,32.6,32.8,33.1,32.7z M37.5,35.3
			c0.9,0,2.8-0.3,0.7-0.3C38,35,36.5,35,37.5,35.3z M5.6,15c0.7,0,1.2-0.9-0.1-0.7c-2.1-0.1,1.8,0.7-0.3,0.4C4.8,14.8,5.4,15,5.6,15
			z M6.2,15.3C6,14.8,5.9,15.6,6.2,15.3z M6.9,13.2C7.2,12.7,6.5,13,6.9,13.2z M4.4,9c1.3-0.4,3.1-1,3.9,0.3C7.7,8.6,8,7.8,8.6,8.9
			C9.5,10.1,9.9,8.4,9.3,8c0.6,0.7,1.3,1.2,0.4,0c1-1.2-2.1,0.1-2.7,0.1C6.8,8.3,3.7,8.9,4.4,9z M5.3,7.5C6,6.9,8,7.8,6.8,6.9
			C6.6,6.8,4.1,7.7,5.3,7.5z M8.1,7.7c0.9,0-0.4-1.2,0.7-0.6C8.7,6.5,7.7,6.3,7.1,6.2C6.6,6.6,7.5,7.7,8.1,7.7L8.1,7.7z M5.7,5.2
			C6,4.7,5.1,5.3,5.7,5.2z M6.9,5.3c1.5-0.1-0.3-0.6-0.3,0H6.9z M4.7,3.7c-1-1.3,1.9,0.1,0.9-1.2C4.7,1.9,4,3.4,4.7,3.7z M17.8,10.7
			c0.4-0.9-1.9-1-0.3-0.3C17.6,10.5,17.6,10.8,17.8,10.7z"/>
	</g>
</g>
</svg>
