<?xml version="1.0" encoding="utf-8"?>
<!-- Generator: Adobe Illustrator 25.4.0, SVG Export Plug-In . SVG Version: 6.00 Build 0)  -->
<svg version="1.1" id="Layer_1" xmlns="http://www.w3.org/2000/svg" xmlns:xlink="http://www.w3.org/1999/xlink" x="0px" y="0px"
	 viewBox="0 0 40 40" style="enable-background:new 0 0 40 40;" xml:space="preserve">
<style type="text/css">
	.st0{fill:#E44E28;}
	.st1{fill:#EC662B;}
	.st2{fill:#EBEBEB;}
	.st3{fill:#FFFFFF;}
</style>
<g>
	<path class="st0" d="M0.9,0h38.2l-3.5,35.9L19.9,40L4.4,35.9L0.9,0z"/>
	<path class="st1" d="M32.8,33.7l2.9-30.6H20.1v33.9L32.8,33.7z"/>
	<path class="st2" d="M13.8,16.3l-0.4-4.5h6.7V7.3h-12l1.2,13.3h10.6v-4.5L13.8,16.3z M9.5,22.9l0.6,6.9l9.8,2.4l0,0v-4.5l0,0
		l-5.3-1.4l-0.4-3.5h-2.7L9.5,22.9z"/>
	<path class="st3" d="M31.1,17.6l0.2-1.2h-11v4.5h5.9l-0.8,5.5l-5.3,1.4v4.5l9.8-2.4V29L31.1,17.6z M20.1,11.8h11.4l0.4-4.5h-12
		L20.1,11.8L20.1,11.8z"/>
</g>
</svg>
