<?xml version="1.0" encoding="utf-8"?>
<!-- Generator: Adobe Illustrator 25.4.0, SVG Export Plug-In . SVG Version: 6.00 Build 0)  -->
<svg version="1.1" id="Layer_1" xmlns="http://www.w3.org/2000/svg" xmlns:xlink="http://www.w3.org/1999/xlink" x="0px" y="0px"
	 viewBox="0 0 40 40" style="enable-background:new 0 0 40 40;" xml:space="preserve">
<style type="text/css">
	.st0{fill:#5C2D91;}
	.st1{opacity:0.1;fill:#FFFFFF;enable-background:new    ;}
	.st2{fill:#FFFFFF;}
	.st3{fill:#F2F2F2;}
</style>
<g>
	<circle class="st0" cx="20.3" cy="19.7" r="19.7"/>
	<path class="st1" d="M6.6,5.6C-1.5,12.8-2.2,25.2,5,33.4s19.7,8.9,27.8,1.6c0.6-0.5,1.1-1,1.6-1.6L6.6,5.6z"/>
	<path class="st2" d="M5.1,22.9c-0.2,0-0.5-0.1-0.6-0.2c-0.2-0.2-0.2-0.4-0.2-0.6c0-0.2,0.1-0.5,0.2-0.6c0.1-0.2,0.4-0.3,0.6-0.2
		c0.2,0,0.5,0.1,0.6,0.2C5.9,21.7,6,21.9,6,22.1c0,0.2-0.1,0.5-0.2,0.6C5.6,22.9,5.3,22.9,5.1,22.9z"/>
	<path class="st2" d="M17.3,22.8h-1.6l-5.8-9c-0.1-0.2-0.2-0.5-0.4-0.7h0c0.1,0.5,0.1,1,0.1,1.5v8.1H8.3V11.6H10l5.6,8.8
		c0.2,0.4,0.4,0.6,0.5,0.7h0c-0.1-0.5-0.1-1.1-0.1-1.7v-7.9h1.3L17.3,22.8L17.3,22.8z"/>
	<path class="st2" d="M26.2,22.8h-6V11.6h5.7v1.2h-4.4v3.7h4v1.2h-4v3.9h4.6L26.2,22.8z"/>
	<path class="st2" d="M35,12.7h-3.3v10.1h-1.3V12.7h-3.2v-1.2H35L35,12.7L35,12.7z"/>
	<path class="st3" d="M16.6,30.5c-0.5,0.2-0.9,0.3-1.4,0.3c-0.7,0-1.3-0.2-1.8-0.7c-0.5-0.5-0.7-1.2-0.7-1.8c0-0.7,0.2-1.5,0.7-2
		c0.5-0.5,1.2-0.8,1.9-0.8c0.4,0,0.8,0.1,1.2,0.2v0.6c-0.4-0.2-0.8-0.3-1.2-0.3c-0.6,0-1.1,0.2-1.5,0.6c-0.4,0.4-0.6,1-0.6,1.6
		c0,0.6,0.1,1.1,0.5,1.5c0.4,0.4,0.8,0.6,1.3,0.6c0.5,0,1-0.1,1.3-0.4L16.6,30.5z"/>
	<path class="st3" d="M19.2,30.7c-0.5,0-1-0.2-1.3-0.5c-0.4-0.4-0.5-0.9-0.5-1.4c0-0.5,0.1-1.1,0.5-1.5c0.4-0.4,0.8-0.5,1.4-0.5
		c0.5,0,1,0.2,1.3,0.5c0.3,0.4,0.5,0.9,0.5,1.4c0,0.5-0.1,1-0.5,1.4C20.2,30.6,19.7,30.7,19.2,30.7z M19.2,27.4
		c-0.4,0-0.7,0.1-0.9,0.4c-0.2,0.3-0.4,0.7-0.3,1.1c0,0.4,0.1,0.7,0.3,1c0.2,0.2,0.6,0.4,0.9,0.4c0.3,0,0.7-0.1,0.9-0.4
		c0.2-0.3,0.3-0.7,0.3-1.1c0-0.4-0.1-0.7-0.3-1.1C19.9,27.5,19.5,27.3,19.2,27.4z"/>
	<path class="st3" d="M23.9,27.6c-0.1-0.1-0.3-0.1-0.5-0.1c-0.2,0-0.5,0.1-0.6,0.4c-0.2,0.3-0.3,0.6-0.2,1v1.9H22v-3.7h0.6v0.8l0,0
		c0.1-0.2,0.2-0.5,0.4-0.6c0.2-0.1,0.4-0.2,0.6-0.2c0.1,0,0.2,0,0.4,0V27.6z"/>
	<path class="st3" d="M27.5,29h-2.6c0,0.4,0.1,0.7,0.3,1c0.2,0.2,0.6,0.4,0.9,0.3c0.4,0,0.8-0.1,1.1-0.4v0.6
		c-0.4,0.2-0.8,0.4-1.3,0.4c-0.5,0-0.9-0.2-1.2-0.5c-0.3-0.4-0.5-0.9-0.5-1.4c0-0.5,0.1-1,0.5-1.4c0.3-0.4,0.7-0.6,1.2-0.5
		c0.4,0,0.8,0.1,1.1,0.5c0.3,0.4,0.4,0.8,0.4,1.3L27.5,29z M26.9,28.5c0-0.3-0.1-0.6-0.2-0.8c-0.2-0.2-0.4-0.3-0.7-0.3
		c-0.3,0-0.5,0.1-0.7,0.3c-0.2,0.2-0.3,0.5-0.4,0.8L26.9,28.5z"/>
</g>
</svg>
