<?xml version="1.0" encoding="utf-8"?>
<!-- Generator: Adobe Illustrator 25.4.0, SVG Export Plug-In . SVG Version: 6.00 Build 0)  -->
<svg version="1.1" id="Layer_1" xmlns="http://www.w3.org/2000/svg" xmlns:xlink="http://www.w3.org/1999/xlink" x="0px" y="0px"
	 viewBox="0 0 40 40" style="enable-background:new 0 0 40 40;" xml:space="preserve">
<style type="text/css">
	.st0{fill:url(#SVGID_1_);}
	.st1{fill:url(#SVGID_00000111902279782268911370000016561603624114699176_);}
</style>
<g transform="matrix(.281963 0 0 .281963 -17.339271 18.541234)">
	
		<linearGradient id="SVGID_1_" gradientUnits="userSpaceOnUse" x1="1646.9929" y1="-297.2507" x2="1724.3003" y2="-230.0965" gradientTransform="matrix(7.951356e-02 0 0 7.951356e-02 -71.9154 -38.0385)">
		<stop  offset="0" style="stop-color:#5CA0D5"/>
		<stop  offset="1" style="stop-color:#316A99"/>
	</linearGradient>
	<path class="st0" d="M131.8-65.8c-5.8,0-11.3,0.5-16.1,1.3c-14.2,2.6-16.9,7.9-16.9,17.7v12.9h33.8v4.2H85.9
		c-9.8,0-18.5,5.8-21.1,17.1c-3.2,12.9-3.2,20.8,0,34.3C67.2,31.8,73,39,82.7,39h11.6V23.7c0-11.1,9.8-21.1,21.1-21.1h33.8
		c9.5,0,16.9-7.7,16.9-17.1v-32.2c0-9.2-7.7-16.1-16.9-17.7C143.4-65.2,137.3-65.8,131.8-65.8L131.8-65.8z M113.3-55.2
		c3.4,0,6.3,2.9,6.3,6.3c0,3.4-2.9,6.3-6.3,6.3c-3.4,0-6.3-2.9-6.3-6.3C107-52.3,109.9-55.2,113.3-55.2z"/>
	
		<linearGradient id="SVGID_00000052809410472510090280000011669122342667973289_" gradientUnits="userSpaceOnUse" x1="2994.5256" y1="1062.7338" x2="2966.9197" y2="1023.2985" gradientTransform="matrix(7.951356e-02 0 0 7.951356e-02 -71.9154 -38.0385)">
		<stop  offset="0" style="stop-color:#FFD43E"/>
		<stop  offset="1" style="stop-color:#FFE975"/>
	</linearGradient>
	<path style="fill:url(#SVGID_00000052809410472510090280000011669122342667973289_);" d="M170.3-29.6v15c0,11.6-9.8,21.4-21.1,21.4
		h-33.8c-9.2,0-16.9,7.9-16.9,17.1v32.4c0,9.2,7.9,14.5,16.9,17.1c10.8,3.2,20.8,3.7,33.8,0c8.4-2.4,16.9-7.4,16.9-17.1V43.5h-33.8
		v-4.2H183c9.8,0,13.5-6.9,16.9-17.1c3.4-10.6,3.4-20.8,0-34.3c-2.4-9.8-7.1-17.1-16.9-17.1L170.3-29.6L170.3-29.6z M151.3,51.9
		c3.4,0,6.3,2.9,6.3,6.3c0,3.7-2.9,6.3-6.3,6.3c-3.4,0-6.3-2.9-6.3-6.3C145,54.8,147.9,51.9,151.3,51.9z"/>
</g>
</svg>
