<?xml version="1.0" encoding="utf-8"?>
<!-- Generator: Adobe Illustrator 25.4.0, SVG Export Plug-In . SVG Version: 6.00 Build 0)  -->
<svg version="1.1" id="Layer_1" xmlns="http://www.w3.org/2000/svg" xmlns:xlink="http://www.w3.org/1999/xlink" x="0px" y="0px"
	 viewBox="0 0 40 40" style="enable-background:new 0 0 40 40;" xml:space="preserve">
<style type="text/css">
	.st0{fill:#4E56A2;}
</style>
<g>
	<path class="st0" d="M6.3,20.2c-0.4-0.3-0.8-0.6-1.3-0.8c-0.5-0.2-1-0.3-1.5-0.6c-0.2-0.1-0.3-0.1-0.5-0.3
		c-0.3-0.3-0.2-0.8,0.1-0.9c0.1-0.1,0.3-0.1,0.5-0.1c1,0,1.9,0.2,2.8,0.6c0,0,0.1,0.1,0.1,0.1c0-0.8,0-1.6,0-2.3
		c0-0.3,0-0.3-0.2-0.3c-0.7-0.3-1.5-0.4-2.2-0.4s-1.5,0.1-2.3,0.3c-1,0.4-1.5,1.1-1.7,2.2c0,0.1,0,0.2-0.1,0.3c0,0,0,0,0,0.1
		c0.1,0.1,0,0.3,0,0.4c0,0,0,0,0,0.1v0.1c0,0.3,0.1,0.5,0.2,0.7c0.2,0.6,0.7,1,1.2,1.2s1,0.5,1.5,0.6c0.3,0.1,0.7,0.2,1,0.4
		c0.1,0.1,0.3,0.2,0.3,0.3c0.1,0.3-0.1,0.7-0.5,0.8c-0.3,0.1-0.8,0.1-1.1,0c-0.8-0.1-1.7-0.4-2.4-0.8c0,0-0.1-0.1-0.1,0
		c0,0.8,0,1.6,0,2.3c0,0.3,0,0.3,0.3,0.3C1.2,25,2,25.2,2.8,25.3c0.8,0.1,1.6-0.1,2.3-0.3c0.7-0.3,1.2-0.7,1.6-1.4
		c0.3-0.5,0.3-1,0.3-1.7C7,21.3,6.8,20.7,6.3,20.2z"/>
	<path class="st0" d="M22.7,28.3L22.7,28.3c0-4.3,0-8.5,0-12.7c0-0.1,0-0.1,0-0.1c-0.1,0.1,0,0.1,0,0.1C22.7,19.8,22.7,24,22.7,28.3
		C22.7,28.3,22.7,28.3,22.7,28.3L22.7,28.3C22.8,28.3,22.8,28.3,22.7,28.3C22.7,28.3,22.7,28.3,22.7,28.3z"/>
	<path class="st0" d="M0.1,18.2c0,0.1,0,0.3,0,0.4C0.1,18.4,0.1,18.3,0.1,18.2z"/>
	<path class="st0" d="M29.5,16c-0.8-0.7-1.8-0.9-2.9-0.7c-0.5,0.1-0.9,0.3-1.3,0.7c-0.1,0.1-0.1,0.1-0.1,0c0-0.1-0.1-0.3-0.1-0.5
		c0-0.1-0.1-0.1-0.1-0.1c-0.8,0-1.6,0-2.3,0c0,0,0,0.1,0,0.1c0,0.1,0,0.1,0,0.1c0,4.1,0,8.3,0,12.4c0,0.1,0,0.1,0,0.2
		c0.8-0.2,1.7-0.3,2.6-0.6c0.1,0,0.1-0.1,0.1-0.1c0-1,0-1.9,0-2.9c0-0.1,0-0.1,0-0.1c0.1,0,0.1,0.1,0.1,0.1c1.1,0.8,2.3,0.8,3.5,0.2
		c0.8-0.4,1.4-1.2,1.7-2c0.3-0.6,0.4-1.3,0.4-2c0.1-0.8,0-1.7-0.2-2.4C30.8,17.5,30.3,16.6,29.5,16z M28.2,21.8
		c-0.1,0.3-0.3,0.6-0.6,0.8c-0.4,0.3-0.8,0.3-1.2,0.2c-0.3-0.1-0.6-0.2-0.8-0.4c-0.1-0.1-0.1-0.1-0.1-0.1c0-0.7,0-1.3,0-2l0,0
		c0-0.6,0-1.3,0-1.9c0-0.1,0-0.1,0.1-0.2c0.6-0.6,1.5-0.6,2-0.2c0.3,0.3,0.6,0.6,0.8,1C28.6,20,28.6,20.9,28.2,21.8z"/>
	<path class="st0" d="M39.9,19.2c-0.1-0.8-0.3-1.5-0.7-2.1c-0.4-0.8-1-1.3-1.8-1.7c-0.7-0.3-1.4-0.3-2.1-0.2
		c-0.8,0.1-1.6,0.6-2.1,1.1c-0.6,0.6-1,1.3-1.2,2.1c-0.2,0.7-0.3,1.5-0.2,2.1c0,0.6,0.1,1.1,0.3,1.6c0.6,1.7,1.8,2.7,3.6,3
		c0.6,0.1,1.2,0.1,1.8,0c0.7-0.1,1.3-0.3,1.9-0.6c0.1-0.1,0.1-0.1,0.1-0.3c0-0.1,0-0.1,0-0.2c0-0.6,0-1.2,0-1.8c-0.1,0-0.1,0-0.1,0
		c-1,0.5-2.1,0.6-3.2,0.6c-0.3-0.1-0.8-0.1-1-0.4c-0.3-0.3-0.6-0.7-0.6-1.1c0-0.1,0-0.1,0.1-0.1c0.9,0,1.8,0,2.7,0
		c0.8,0,1.7,0,2.5,0c0.1,0,0.1,0,0.1-0.1C40,20.5,40,19.9,39.9,19.2z M37.3,19.3c-0.4,0-0.9,0-1.3,0s-0.9,0-1.3,0
		c-0.1,0-0.1,0-0.1-0.1c0-0.4,0.1-0.8,0.3-1.2c0.6-0.8,1.9-0.8,2.3,0.2c0.1,0.3,0.2,0.6,0.2,0.9C37.4,19.3,37.3,19.3,37.3,19.3z"/>
	<path class="st0" d="M10.5,17.8c0.6,0,1.2,0,1.9,0c0.1,0,0.1,0,0.1-0.1c0-0.7,0-1.5,0-2.1c0-0.1,0-0.1-0.1-0.1c-0.6,0-1.2,0-1.9,0
		c-0.1,0-0.1,0-0.1-0.1c0-0.8,0-1.5,0-2.2c0-0.1,0-0.1-0.1-0.1c-0.8,0.2-1.7,0.3-2.5,0.6c-0.1,0-0.1,0.1-0.1,0.1c0,2.9,0,5.8,0,8.7
		c0,0.2,0,0.4,0.1,0.6c0.2,1.2,1.2,2.1,2.5,2.3c0.4,0.1,0.8,0,1.2,0c0.3-0.1,0.7-0.1,1-0.3c0.1,0,0.1-0.1,0.1-0.1c0-0.7,0-1.4,0-2
		c0,0,0-0.1,0-0.1c-0.1,0-0.1,0-0.1,0c-0.3,0.1-0.7,0.1-1,0.1c-0.5,0-0.8-0.3-0.9-0.6c-0.3-0.2-0.3-0.3-0.3-0.6c0-1.2,0-2.6,0-3.8
		C10.3,17.8,10.3,17.8,10.5,17.8z"/>
	<path class="st0" d="M18.2,15.4c-0.1-0.1-0.3-0.1-0.4-0.1c-0.5-0.1-0.9,0-1.3,0.3c-0.2,0.1-0.3,0.3-0.6,0.6
		c-0.1-0.3-0.1-0.5-0.1-0.7c0-0.1-0.1-0.1-0.1-0.1c-0.8,0-1.5,0-2.2,0c-0.1,0-0.1,0-0.1,0.1c0,3.2,0,6.3,0,9.5c0,0.1,0,0.1,0.1,0.1
		c0.8,0,1.7,0,2.6,0c0.1,0,0.1,0,0.1-0.1c0-2.1,0-4.2,0-6.4c0-0.1,0-0.1,0.1-0.1c0.3-0.3,0.8-0.6,1.2-0.6c0.3,0,0.6,0,0.8,0.1V18
		c0-0.8,0-1.6,0-2.4C18.2,15.4,18.2,15.4,18.2,15.4z"/>
	<path class="st0" d="M21.5,15.4c-0.8,0-1.7,0-2.6,0c-0.1,0-0.1,0-0.1,0.1c0,1.6,0,3.1,0,4.7s0,3.2,0,4.8c0,0.1,0,0.1,0.1,0.1
		c0.8,0,1.7,0,2.6,0c0.1,0,0.1,0,0.1-0.1c0-3.2,0-6.3,0-9.5C21.7,15.4,21.7,15.4,21.5,15.4z"/>
	<path class="st0" d="M18.9,14.6L18.9,14.6c0.9-0.2,1.8-0.4,2.7-0.6c0.1,0,0.1-0.1,0.1-0.1c0-0.7,0-1.4,0-2.1c0-0.1,0-0.1-0.1-0.1
		c-0.9,0.2-1.7,0.3-2.6,0.6c-0.1,0-0.1,0.1-0.1,0.1C18.9,13.2,18.9,13.9,18.9,14.6C18.9,14.5,18.9,14.5,18.9,14.6z"/>
</g>
</svg>
