<?xml version="1.0" encoding="utf-8"?>
<!-- Generator: Adobe Illustrator 25.4.0, SVG Export Plug-In . SVG Version: 6.00 Build 0)  -->
<svg version="1.1" id="Layer_1" xmlns="http://www.w3.org/2000/svg" xmlns:xlink="http://www.w3.org/1999/xlink" x="0px" y="0px"
	 viewBox="0 0 40 40" style="enable-background:new 0 0 40 40;" xml:space="preserve">
<style type="text/css">
	.st0{fill:#25303F;}
	.st1{fill-rule:evenodd;clip-rule:evenodd;fill:#F4991A;}
</style>
<g>
	<path class="st0" d="M11.3,16.7c0,0.5,0.1,0.9,0.2,1.2c0.1,0.3,0.2,0.6,0.4,1C12,18.9,12,19,12,19.1c0,0.1-0.1,0.3-0.3,0.4
		l-0.9,0.6c-0.1,0.1-0.2,0.1-0.4,0.1c-0.1,0-0.3-0.1-0.4-0.2c-0.2-0.2-0.4-0.4-0.5-0.6c-0.1-0.2-0.3-0.5-0.4-0.8
		c-1.1,1.3-2.3,1.9-3.9,1.9c-1.1,0-2.1-0.3-2.6-1c-0.7-0.7-1-1.5-1-2.5c0-1.2,0.4-2.1,1.2-2.7s1.9-1.1,3.2-1.1c0.5,0,0.9,0,1.4,0.1
		c0.5,0.1,1,0.2,1.6,0.3v-1c0-1-0.2-1.8-0.6-2.2C8,10,7.2,9.8,6.2,9.8c-0.5,0-1,0.1-1.5,0.2s-1,0.3-1.5,0.5
		c-0.2,0.1-0.4,0.2-0.5,0.2s-0.2,0-0.2,0c-0.2,0-0.3-0.1-0.3-0.4V9.6c0-0.2,0-0.4,0.1-0.5S2.6,9,2.8,8.9c0.5-0.2,1.1-0.5,1.7-0.6
		C5.1,8.1,5.8,8,6.5,8C8.1,8,9.2,8.4,10,9.1c0.8,0.7,1.1,1.9,1.1,3.3L11.3,16.7L11.3,16.7z M5.8,18.7c0.5,0,0.9-0.1,1.4-0.2
		c0.5-0.1,0.9-0.5,1.3-0.9c0.2-0.3,0.4-0.5,0.5-0.9c0.1-0.3,0.1-0.7,0.1-1.2v-0.5c-0.4-0.1-0.8-0.2-1.3-0.2
		c-0.4-0.1-0.9-0.1-1.3-0.1c-0.9,0-1.6,0.2-2,0.5c-0.5,0.4-0.7,0.9-0.7,1.6c0,0.6,0.2,1.1,0.5,1.4C4.8,18.6,5.2,18.7,5.8,18.7
		L5.8,18.7z M16.6,20.2c-0.2,0-0.4,0-0.5-0.1c-0.1-0.1-0.2-0.3-0.3-0.5L12.7,9.2c-0.1-0.3-0.1-0.5-0.1-0.5c0-0.2,0.1-0.3,0.3-0.3
		h1.3c0.3,0,0.4,0,0.5,0.1c0.1,0.1,0.2,0.3,0.3,0.5l2.2,8.8l2.1-8.8c0.1-0.3,0.2-0.5,0.3-0.5c0.1,0,0.3-0.1,0.5-0.1h1.1
		c0.3,0,0.4,0,0.5,0.1c0.1,0.1,0.2,0.3,0.3,0.5l2.2,8.9l2.3-8.9c0.1-0.3,0.2-0.5,0.3-0.5c0.1-0.1,0.3-0.1,0.5-0.1h1.3
		c0.2,0,0.3,0.1,0.3,0.3c0,0.1,0,0.1,0,0.2c0,0.1,0,0.2-0.1,0.3l-3.2,10.3c-0.1,0.3-0.2,0.5-0.3,0.5s-0.3,0.1-0.5,0.1h-1.2
		c-0.3,0-0.4,0-0.5-0.1c-0.1-0.1-0.2-0.3-0.3-0.5l-2.1-8.6l-2.1,8.6c-0.1,0.3-0.2,0.5-0.3,0.5c-0.1,0.1-0.3,0.1-0.5,0.1L16.6,20.2
		L16.6,20.2z M33.7,20.6c-0.7,0-1.4-0.1-2.1-0.2c-0.7-0.1-1.2-0.3-1.6-0.5c-0.2-0.1-0.4-0.3-0.4-0.4c-0.1-0.1-0.1-0.3-0.1-0.4v-0.7
		c0-0.3,0.1-0.4,0.3-0.4c0.1,0,0.2,0,0.2,0c0.1,0,0.2,0.1,0.3,0.1c0.5,0.2,1,0.4,1.5,0.5s1.1,0.2,1.6,0.2c0.9,0,1.5-0.2,2-0.5
		c0.5-0.3,0.7-0.7,0.7-1.3c0-0.4-0.1-0.7-0.4-1c-0.2-0.3-0.7-0.5-1.4-0.7l-2-0.6c-1-0.3-1.7-0.8-2.2-1.4s-0.7-1.3-0.7-2
		c0-0.6,0.1-1.1,0.4-1.5c0.2-0.4,0.6-0.8,1-1.1c0.4-0.3,0.9-0.5,1.4-0.7c0.5-0.2,1.1-0.2,1.7-0.2c0.3,0,0.6,0,0.9,0.1
		c0.3,0,0.6,0.1,0.9,0.2c0.5-0.1,0.8,0,1,0.1c0.2,0.1,0.4,0.2,0.6,0.2c0.2,0.1,0.3,0.2,0.4,0.3c0.1,0.1,0.1,0.3,0.1,0.5V10
		c0,0.3-0.1,0.4-0.3,0.4c-0.1,0-0.3-0.1-0.5-0.2c-0.8-0.4-1.7-0.5-2.5-0.5c-0.8,0-1.4,0.1-1.8,0.4c-0.4,0.3-0.6,0.7-0.6,1.2
		c0,0.4,0.1,0.7,0.4,1c0.3,0.3,0.8,0.5,1.5,0.8l1.9,0.6c1,0.3,1.7,0.8,2.1,1.3c0.4,0.6,0.6,1.2,0.6,1.9c0,0.6-0.1,1.1-0.4,1.6
		c-0.2,0.5-0.6,0.9-1,1.2s-0.9,0.6-1.5,0.8C35,20.5,34.4,20.6,33.7,20.6L33.7,20.6z"/>
	<g>
		<path class="st1" d="M36.2,27c-4.4,3.2-10.8,5-16.2,5c-7.7,0-14.6-2.8-19.8-7.5c-0.4-0.4,0-0.9,0.5-0.6c5.7,3.3,12.6,5.3,19.8,5.3
			c4.9,0,10.2-1,15.1-3.1C36.3,25.7,36.9,26.5,36.2,27z"/>
		<path class="st1" d="M38,25c-0.6-0.7-3.7-0.4-5.2-0.2c-0.4,0.1-0.5-0.3-0.1-0.6c2.5-1.8,6.6-1.3,7.1-0.7c0.5,0.6-0.1,4.7-2.4,6.6
			c-0.4,0.3-0.7,0.2-0.6-0.3C37.4,28.6,38.6,25.7,38,25z"/>
	</g>
</g>
</svg>
