<?xml version="1.0" encoding="utf-8"?>
<!-- Generator: Adobe Illustrator 25.4.0, SVG Export Plug-In . SVG Version: 6.00 Build 0)  -->
<svg version="1.1" id="Layer_1" xmlns="http://www.w3.org/2000/svg" xmlns:xlink="http://www.w3.org/1999/xlink" x="0px" y="0px"
	 viewBox="0 0 40 40" style="enable-background:new 0 0 40 40;" xml:space="preserve">
<style type="text/css">
	.st0{fill:#0A69AD;}
</style>
<g>
	<path class="st0" d="M1.9,10.1c-3.6,5.4-3.3,12.3-0.4,17.8l0.4,0.7l0,0c0,0,0,0,0,0.4l0.4,0.4v0.4L3,30.4c0,0.4,0.4,0.4,0.4,0.7
		l0,0c0,0.4,0.4,0.4,0.4,0.7v0.4l0.4,0.4l0,0c0,0.4,0.4,0.4,0.4,0.7l0,0c0,0.4,0.4,0.4,0.4,0.7l0,0l0.4,0.4l0,0
		c0.4,0.4,0.4,0.4,0.7,0.4l0,0l0.4,0.4h0.4L7,35.5l0.4,0.4l0.4,0.4h0.4l0,0l0.4,0.4h0.4c0.4,0,0.4,0.4,0.7,0.4h0.4l0.7,0.4H11
		l0.4,0.4l0,0l0,0l0.7,0.4l0,0c0.4,0,0.4,0.4,0.7,0.4h0.4l0.7,0.4l0,0c0.4,0,0.4,0,0.7,0.4H15c0.4,0,0.4,0,0.7,0.4
		c17.8,3.3,23.2-10.9,23.2-10.9c-4.3,5.8-12,7.2-19.6,5.4c-0.4,0-0.7,0-0.7-0.4h-0.4c-0.4,0-0.4,0-0.7-0.4l0,0c-0.4,0-0.4,0-0.7-0.4
		h-0.4c-0.4,0-0.4-0.4-0.7-0.4l0,0l0.7,1.1h-0.4l-0.4-0.4h-0.4C15,33.3,15,33,14.6,33h-0.4c-0.4,0-0.4-0.4-0.7-0.4c0,0,0,0-0.4,0
		l-0.4-0.4l0,0l-0.4-0.4l-0.7-0.4h-0.4L11,30.1l0,0c-0.4,0-0.4-0.4-0.7-0.7l0,0L9.9,29l0,0l-0.4-0.7l0,0c-0.4-0.4-0.4-0.4-0.4-0.7
		l0,0l-0.4-0.4l0,0l-0.4-0.7C4.5,21,3,13.4,6.3,6.9 M13.5,5.8c-2.5,4-2.5,9.1-0.4,13c0.4,0.7,0.7,1.4,1.1,1.8
		c0.4,0.7,0.7,1.1,1.4,1.8c0.4,0.4,0.4,0.4,0.7,0.7l0,0l0.7,0.7l0,0c0.4,0.4,0.4,0.4,0.7,0.7l0,0c0.4,0.4,0.4,0.4,0.7,0.7l0,0
		c0,0,0.4,0,0.4,0.4l0,0c0.4,0,0.4,0.4,0.7,0.4l0,0l0.4,0.4l0,0h0.4l0,0c0.4,0,0.4,0.4,0.7,0.4l0,0l0.7,0.4h0.4c0,0,0.4,0,0.4,0.4
		h0.4c0.4,0,0.4,0,0.7,0.4c13.8,2.2,17-8.3,17-8.3c-2.9,4-8.3,6.2-14.5,4.7c-0.4,0-0.4,0-0.7-0.4c0,0,0,0-0.4,0s-0.4,0-0.7-0.4H24
		c-0.4,0-0.4,0-0.7-0.4h-0.4c-0.4,0-0.4-0.4-0.7-0.4c0,0-0.4,0-0.4-0.4h-0.4c0,0-0.4,0-0.4-0.4l0,0c-0.4,0-0.4-0.4-0.7-0.4l0,0
		l0.7-0.4c-0.4,0-0.4-0.4-0.7-0.7l0,0c-2.5-2.2-4.7-4.7-5.8-8c-1.1-3.3-0.7-6.9,1.1-10.1 M22.9,2.2c-1.4,2.2-1.8,5.1-0.7,7.6
		c1.1,2.5,3.6,4.7,6.2,5.8h0.4l0,0h0.4c7.6,1.4,9.8-4,10.1-4.7c-1.8,2.5-4.7,3.3-8.7,2.2c-0.4,0-0.7,0-0.7-0.4
		c-0.4,0-0.7-0.4-1.1-0.4c-0.7-0.4-1.4-0.7-1.8-1.1C23.7,8.7,21.5,4,23.7,0"/>
</g>
</svg>
