<?xml version="1.0" encoding="utf-8"?>
<!-- Generator: Adobe Illustrator 25.4.0, SVG Export Plug-In . SVG Version: 6.00 Build 0)  -->
<svg version="1.1" id="Layer_1" xmlns="http://www.w3.org/2000/svg" xmlns:xlink="http://www.w3.org/1999/xlink" x="0px" y="0px"
	 viewBox="0 0 40 40" style="enable-background:new 0 0 40 40;" xml:space="preserve">
<style type="text/css">
	.st0{fill:#3E66AF;}
	.st1{fill:#FFFFFF;stroke:#FFFFFF;stroke-width:1.165838e-02;stroke-miterlimit:2.1595;}
</style>
<g transform="matrix(.215948 0 0 .215948 2.339411 32.398966)">
	<path class="st0" d="M81.4-147.3c-1.7,0-3.2,0.4-4.7,1.3L12-115.4c-3.4,1.5-5.8,4.7-6.6,8.3l-15.8,69.1c-0.9,3.2-0.2,6.6,1.7,9.4
		c0.2,0.4,0.4,0.6,0.6,1.1L36.4,28c2.4,3,6,4.5,9.6,4.5h71.5c3.6,0,7.3-1.7,9.6-4.5l44.5-55.4c2.4-3,3.2-6.6,2.4-10.3l-15.8-69.1
		c-0.9-3.6-3.2-6.6-6.6-8.3L87.4-146C85.4-147.1,83.5-147.5,81.4-147.3z"/>
	<path class="st1" d="M82.2-123.8c-2.1,0.2-3.9,2.1-3.9,4.3v1.1c0,1.3,0.2,2.4,0.4,3.6c0.4,2.4,0.4,4.7,0.4,7.1
		c-0.2,0.9-0.6,1.5-1.3,1.9v1.7c-2.4,0.2-4.7,0.6-7.1,1.1c-9.6,2.1-18.4,7.3-25.3,14.3l-1.5-1.1c-0.9,0.2-1.5,0.2-2.4-0.2
		c-1.9-1.5-3.6-3-5.1-4.7c-0.9-0.9-1.7-1.9-2.6-2.8l-0.9-0.6c-0.9-0.6-1.7-1.1-2.8-1.1c-1.3,0-2.4,0.4-3,1.3
		c-1.3,1.9-0.9,4.3,0.9,5.8l0.9,0.6c1.1,0.6,2.1,1.3,3.2,1.9c2.1,1.1,4.1,2.6,5.8,4.1c0.4,0.6,0.6,1.5,0.9,2.1l1.3,1.1
		c-6.9,10.3-9.6,22.7-7.9,34.9L30.7-47c-0.4,0.6-1.1,1.3-1.7,1.7c-2.4,0.6-4.5,1.1-6.9,1.1c-1.3,0-2.6,0.2-3.6,0.2l-1.1,0.2h-0.2
		c-2.1,0.2-3.6,2.1-3.4,4.3c0.2,0.9,0.4,1.7,1.1,2.1c1.1,1.1,2.6,1.5,4.1,0.9l0,0l1.1-0.2c1.3-0.4,2.4-0.9,3.4-1.3
		c2.1-0.9,4.5-1.5,6.6-1.9c0.9,0,1.5,0.2,2.1,0.9l1.7-0.2c3.9,11.8,11.8,21.6,22.3,27.8v1.9c0.4,0.6,0.4,1.5,0.4,2.1
		c-0.9,2.1-2.1,4.3-3.4,6.4c-0.9,1.1-1.5,1.9-2.1,3l-0.4,1.1c-1.1,1.9-0.4,4.3,1.3,5.4c0.6,0.4,1.5,0.6,2.4,0.4
		c1.5-0.2,2.8-1.1,3.2-2.6l0.4-1.1c0.4-1.1,0.9-2.4,1.1-3.6c1.1-2.6,1.5-5.4,3-6.9c0.4-0.4,1.1-0.6,1.7-0.9l0.9-1.5
		C76-3.1,88.7-3.1,100-7.6l0.9,1.5c0.9,0.2,1.5,0.6,1.9,1.3c1.1,2.1,1.9,4.3,2.6,6.4c0.2,1.3,0.6,2.4,1.1,3.6l0.4,1.1
		c0.6,1.9,3,3,4.9,2.4c0.9-0.2,1.5-0.9,1.9-1.5c0.9-1.3,0.9-2.8,0-4.1l-0.4-1.1c-0.6-1.1-1.3-2.1-2.1-3c-1.3-1.9-2.6-4.1-3.4-6.2
		c-0.2-0.9,0-1.7,0.4-2.4c-0.2-0.4-0.4-1.1-0.6-1.5c10.5-6.2,18.4-16.3,22.3-27.8l1.7,0.2c0.6-0.6,1.3-0.9,2.1-0.9
		c2.4,0.4,4.5,1.1,6.6,1.9c1.1,0.4,2.4,0.9,3.4,1.3c0.2,0,0.6,0.2,1.1,0.2l0,0c1.9,0.6,4.3-0.4,4.9-2.6c0.2-0.9,0.2-1.7,0-2.6
		c-0.4-1.5-1.7-2.4-3.2-2.6l-0.9,0C144.3-44,143-44,142-44c-2.4-0.2-4.7-0.4-6.9-1.1c-0.6-0.4-1.3-1.1-1.7-1.7l-1.5-0.6
		c1.7-12.2-1.3-24.6-8.1-34.7l1.3-1.3c0-0.9,0.2-1.5,0.6-2.1c1.7-1.5,3.6-2.8,5.8-4.1c1.1-0.6,2.1-1.3,3.2-1.9l0.9-0.6
		c1.9-1.1,2.4-3.4,1.3-5.4c-0.4-0.9-1.3-1.3-1.9-1.7c-1.5-0.4-3-0.2-4.1,0.9l-0.9,0.6c-0.9,0.9-1.7,1.7-2.6,2.8
		c-1.5,1.7-3.2,3.4-5.1,4.7c-0.6,0.2-1.5,0.4-2.4,0.2l-1.3,1.3c-8.6-8.8-19.9-14.3-32.1-15.4c0-0.4,0-1.5,0-1.7
		c-0.6-0.4-1.1-1.1-1.3-1.9c0-2.4,0-4.7,0.4-7.1c0.2-1.3,0.4-2.4,0.4-3.6v-1.1C86.3-121.9,84.6-123.8,82.2-123.8L82.2-123.8z
		 M77.5-94.1l-1.3,20.3l0,0c0,1.9-1.7,3.4-3.6,3.2c-0.6,0-1.3-0.2-1.9-0.6L54-82.9c5.4-5.1,12-8.8,19.1-10.5
		C74.8-93.6,76-93.9,77.5-94.1L77.5-94.1z M87.2-94.1c8.8,1.1,16.9,4.9,23.1,11.1L93.8-71.2c-1.5,1.1-3.6,0.9-4.7-0.4
		c-0.4-0.6-0.6-1.3-0.6-2.1L87.2-94.1z M48.2-75.2l15.2,13.5l0,0c1.5,1.3,1.5,3.4,0.4,4.7c-0.4,0.4-1.1,0.9-1.7,1.1l0,0l-19.7,5.8
		C41.6-59,43.5-67.7,48.2-75.2L48.2-75.2z M116.3-75.2c4.7,7.5,6.6,16.3,5.8,25l-19.5-5.6l0,0c-1.7-0.4-2.8-2.4-2.4-4.3
		c0.2-0.6,0.6-1.3,1.1-1.7L116.3-75.2L116.3-75.2z M79.2-60.7h6.2l3.9,4.7l-1.5,6l-5.6,2.8L76.7-50l-1.3-6L79.2-60.7z M99.2-44.2
		c0.2,0,0.4,0,0.9,0l20.1,3.4c-3,8.3-8.6,15.4-16.1,20.3l-7.9-19.1c-0.6-1.7,0-3.6,1.7-4.5C98.3-44,98.7-44.2,99.2-44.2L99.2-44.2z
		 M65.3-44.2c1.9,0,3.4,1.5,3.4,3.4c0,0.4,0,0.9-0.2,1.3l0,0l-7.7,18.6c-7.3-4.7-13.1-11.8-16.1-19.9l19.9-3.4
		C64.9-44.2,65.1-44.2,65.3-44.2L65.3-44.2z M82.2-35.8c1.3,0,2.6,0.6,3.2,1.7l0,0l9.8,17.8c-1.3,0.4-2.6,0.9-3.9,1.1
		c-7.3,1.7-14.8,1.3-21.8-1.1l9.8-17.8C79.9-35.2,81-35.8,82.2-35.8L82.2-35.8z"/>
</g>
</svg>
