<svg xmlns="http://www.w3.org/2000/svg" viewBox="0 0 200 53">
  <path fill="#050708" d="M107.3676.0462l-6.3265,23.5616H95.7927l4.1048-15.38L90.6741,18.29h-.13L86.7721,8.3325l-4.1035,15.28H77.4845L83.811.0462h5.3844l3.3957,9.9627L101.3787.0462Zm4.5441,0-6.32,23.5616h5.1828L117.0958.0462Zm9.7338,0L115.314,23.6078h16.93l1.28-4.7093H121.7765L126.8284.0462Zm19.724,0-6.33,23.5616h16.93l1.2784-4.7093H141.5L146.5523.0462Zm19.7239,0-6.3316,23.5553H172.54l1.2431-4.61H161.1312L162.475,14.01h10.9376l1.2457-4.5392H163.7169l1.28-4.8139h12.449l1.2469-4.611Zm29.4128,23.5664h5.8894L192.39,15.5719a10.6611,10.6611,0,0,0,5.4549-2.83A7.7356,7.7356,0,0,0,200,7.1571a6.5467,6.5467,0,0,0-1.8187-4.7484C196.6035.8243,194.2129.0522,190.7127.0522h-8.58l-6.33,23.56h5.1816l2.02-7.5394H186.87Zm-6.2548-12.1178,1.8175-6.766h4.3441a4.8156,4.8156,0,0,1,3.43.9736,2.4806,2.4806,0,0,1,.7406,1.8892,3.3014,3.3014,0,0,1-.9736,2.3906,6.72,6.72,0,0,1-4.7471,1.5126ZM72.7965,41.8611h2.5051l3.8-13.604H76.5977Zm7.0773,0h2.4623l2.7483-9.8922,4.9549,9.8922h2.0782l3.8012-13.604h-2.446l-2.7042,9.6252-4.7911-9.6252H83.675Zm17.8021-5.6177c0,3.8919,3.1753,5.8517,6.489,5.8467a9.9006,9.9006,0,0,0,5.096-1.3225l1.917-6.5054h-6.0217l-.5819,2.0782h3.6148l-.8716,2.8541a6.3159,6.3159,0,0,1-2.9888.6965c-2.3024,0-4.0393-1.34-4.0393-3.7294a6.0107,6.0107,0,0,1,1.84-4.2735,5.903,5.903,0,0,1,4.1425-1.6765,4.7753,4.7753,0,0,1,3.9208,1.7306l1.86-1.5127c-.9307-1.2632-2.6286-2.4069-5.601-2.4069a8.8817,8.8817,0,0,0-6.2069,2.4661,7.9835,7.9835,0,0,0-2.5694,5.7547m15.5,5.6127h10.49l.6033-2.1336h-8.0244l1.0291-3.6539H124.27l.61-2.1172h-7.0117l.9912-3.5556h7.9047l.6046-2.1387H116.9807Zm14.1437.005h2.4661l2.7482-9.8922,4.9549,9.8922h2.0845l3.8-13.604h-2.4447l-2.7105,9.6252-4.7912-9.6252h-2.3023Zm18.0568-4.2733c0,2.76,1.9157,4.49,5.2421,4.49a6.3582,6.3582,0,0,0,4.6274-1.6915,8.5773,8.5773,0,0,0,2.1991-4.0242l2.2646-8.1049h-2.4825l-2.1663,7.7346a6.0849,6.0849,0,0,1-1.5568,2.8591,3.72,3.72,0,0,1-2.6512,1.0127c-1.96,0-2.9725-1.09-2.9725-2.6034a5.6592,5.6592,0,0,1,.2015-1.4963l2.1009-7.5067h-2.5039l-1.9812,7.1691a7.6144,7.6144,0,0,0-.3212,2.1613m14.993,4.2733h2.5089l3.8-13.604h-2.5039Zm10.2071,0h2.4876l3.1953-11.3884h4.4852l.6259-2.2155H169.89l-.626,2.2155h4.5078Zm12.6242-.005h2.4876l1.432-5.15,7.9815-8.4551h-3.0707l-5.6023,6.1464-2.1235-6.1464h-2.7709l3.1525,8.2044Z" />
  <path fill="#3f4040" d="M60.427,26.2879s2.5971,1.5026,2.86,3.4511c.0794.5907.1738,3.1135.27,6.3378L73.6846.2035H62.9535l-5.698,20.1634a8.8129,8.8129,0,0,1,3.1715,5.921" />
  <path fill="#c72129" d="M63.5814,29.5745s-.1146-1.3175-3.05-3.4322c0,0-5.5671-4.81-17.6168-.8489L6.2183,52.796,42.9519,41.24s15.84-4.708,21.08.45Zm-7.5356-2.1273a1.8122,1.8122,0,0,1,.136-1.2016c-.0743-.0114-.1448-.0328-.2229-.0491a17.9654,17.9654,0,0,0-2.0606-.2356c-.694-.0491-1.3918-.0579-2.0769-.0453-.6852.02-1.359.0579-2.0152.1285a29.0575,29.0575,0,0,0-3.5468.5239c-.6814.1247-3.4108.9862-3.4108.9862l-.0037-.16s.3249-.1361.9081-.3389c.5819-.1977,1.4207-.4748,2.4522-.7217a28.5944,28.5944,0,0,1,3.5607-.6625c.6562-.0818,1.3413-.1272,2.0441-.1612.6928-.0239,1.4069-.0239,2.1173.0177a17.5733,17.5733,0,0,1,2.1008.2682c.1461.029.2859.0668.4308.0945a.88.88,0,0,1,.3967-.1852,1.1857,1.1857,0,0,1,1.1474.6021c.0089.005.0164.005.024.0088a10.8947,10.8947,0,0,1,1.7595.7885,10.5534,10.5534,0,0,1,1.4321.9585c.204.1725.4018.3337.5831.4949.165.1776.3262.3439.4749.5.2934.3186.7733.9043.7733.9043l-.0176.1322s-.5656-.636-.8754-.9244c-.1562-.1461-.3212-.2935-.5-.4547-.1852-.1449-.3842-.301-.5907-.4585a10.0625,10.0625,0,0,0-1.4321-.87,12.5016,12.5016,0,0,0-1.3917-.5832,2.4315,2.4315,0,0,1,.0667.2356,1.7586,1.7586,0,0,1-.1914,1.2884c.2947.0995.5869.1978.8678.31.2934.136.5831.2519.8552.3917.2645.15.5327.2771.7758.4333.2393.1574.4749.301.69.4584.21.165.4081.3225.5983.4711.1814.165.3388.3262.4962.4748a7.1881,7.1881,0,0,1,.7016.83l.0076.1272a8.9343,8.9343,0,0,0-.8212-.8375c-.165-.1361-.3313-.2859-.5164-.4333q-.291-.204-.6071-.4333c-.2141-.141-.4547-.2733-.6928-.4169-.2405-.141-.5088-.2569-.7733-.3892-.2683-.1234-.5567-.2229-.8426-.3463-.2922-.1-.5983-.199-.9031-.3023a1.0859,1.0859,0,0,1-.1284-.0327.8285.8285,0,0,1-.3263.1448,1.1291,1.1291,0,0,1-1.0365-.4585c-.1524-.0289-.3011-.0617-.4535-.0856a18.4782,18.4782,0,0,0-2.0567-.21c-.694-.0516-1.388-.0579-2.0694-.0428-.6814.0214-1.354.0542-2.0064.12-1.2973.1209-2.5115.2859-3.5392.48-.4749.0856-3.4813.95-3.4813.95l-.0038-.19s.4018-.1322.9837-.3211c.5857-.1864,1.4232-.4472,2.4522-.6789a30.7644,30.7644,0,0,1,3.5506-.6147c.6575-.0743,1.3389-.12,2.0329-.1486s1.3993-.0277,2.1046.0088a19.518,19.518,0,0,1,2.0971.2431.759.759,0,0,1,.1083.0252,1.6365,1.6365,0,0,1-.136-.4055m.107,4.0354a1.9925,1.9925,0,0,1,.1083-1.223c-.1209-.0214-.24-.0453-.364-.0617-.6688-.0944-1.3539-.1486-2.0391-.1788a26.9369,26.9369,0,0,0-4.043.1121c-1.2885.1247-2.4863.2859-3.5065.48-.4622.0832-3.4561.9447-3.4561.9447v-.1978s.3968-.1284.98-.3136c.5819-.1826,1.4119-.4383,2.4309-.6726a32.169,32.169,0,0,1,3.5178-.62,27.7031,27.7031,0,0,1,4.1009-.1688,19,19,0,0,1,2.082.2053c.1851.0289.3678.0667.5529.1a.9156.9156,0,0,1,.5114-.2859,1.2975,1.2975,0,0,1,1.2721.7116c.194.0579.3841.12.5743.1889.2922.1209.5819.228.859.3527.2721.1348.54.2506.7885.39.243.1449.4861.2771.7053.4182.2154.1524.4257.2935.62.4295.19.1486.36.301.52.4383a10.5577,10.5577,0,0,1,.8263.8086l.0088.1285a11.46,11.46,0,0,0-.9346-.8149c-.1687-.1222-.3463-.26-.54-.3917-.199-.1235-.4093-.2557-.6234-.393-.223-.1272-.4635-.2469-.71-.3753-.2469-.1235-.5164-.23-.7847-.3464-.272-.1121-.56-.2028-.85-.31-.0781-.0215-.1613-.0492-.2394-.0706.0278.0882.058.1738.0781.2683a2.0181,2.0181,0,0,1-.1032,1.2192c.4055.1159.7972.238,1.1688.3791.2771.1146.5416.23.801.3426.2519.1335.4912.2557.723.38a8.911,8.911,0,0,1,1.18.7935,11.721,11.721,0,0,1,.8956.7582v.1247a11.0442,11.0442,0,0,0-.9913-.752,11.6664,11.6664,0,0,0-1.1965-.7091c-.2305-.1083-.4748-.2153-.723-.3312-.2557-.1-.5239-.1977-.7972-.301-.3993-.1335-.825-.2482-1.2633-.3552a.9727.9727,0,0,1-.5567.3375,1.2949,1.2949,0,0,1-1.2507-.6889c-.2154-.029-.4257-.063-.6449-.0819-.6638-.0756-1.35-.1033-2.0316-.1247a30.4126,30.4126,0,0,0-4.014.1575c-1.28.1234-2.4687.2846-3.4851.466-.4534.0793-3.4347.8716-3.4347.8716l-.005-.1738s.3967-.12.9748-.3011c.5782-.1738,1.4082-.4169,2.42-.64a33.5356,33.5356,0,0,1,3.49-.6033,30.8585,30.8585,0,0,1,4.0619-.2179c.694.0277,1.388.0642,2.0693.1562.1285.0113.252.0378.38.0541a.9748.9748,0,0,1-.1121-.3136M43.82,35.0785c.5731-.1738,1.3993-.38,2.4069-.602,1.0076-.2192,2.184-.4686,3.4637-.6285a35.4322,35.4322,0,0,1,4.0342-.2847c.69.0126,1.3842.0328,2.06.0945a18.636,18.636,0,0,1,1.9825.2733,13.0977,13.0977,0,0,1,3.3654,1.1021,8.1979,8.1979,0,0,1,1.218.7267c.3514.2267.9421.7217.9421.7217l.0126.1335s-.6814-.5164-1.0454-.7192a11.4213,11.4213,0,0,0-1.2306-.64,12.7,12.7,0,0,0-1.54-.5542,18.139,18.139,0,0,0-1.7848-.3992,17.86,17.86,0,0,0-1.9446-.2406c-.6638-.0491-1.3452-.06-2.0266-.06a34.8147,34.8147,0,0,0-3.9926.2217c-1.2721.1411-2.4536.31-3.4649.4912-1.0077.1864-3.42.8351-3.42.8351l-.0038-.1738c-.0038-.0051.393-.1272.9673-.2973m2.3943,1.33c1.0026-.2356,2.1765-.5051,3.4561-.69a35.5561,35.5561,0,0,1,4.0305-.3715c.69-.0126,1.3829,0,2.0593.0453a18.9334,18.9334,0,0,1,1.9875.2192,12.4549,12.4549,0,0,1,1.825.4207,11.6235,11.6235,0,0,1,1.5693.5869,6.8165,6.8165,0,0,1,.6638.3375,4.898,4.898,0,0,1,.5693.3527,10.7253,10.7253,0,0,1,.9887.767v.1071a10.99,10.99,0,0,0-1.0743-.7393,5.1037,5.1037,0,0,0-.5819-.3048c-.2116-.0945-.4258-.2141-.6651-.301a11.9026,11.9026,0,0,0-1.558-.5089,17.4879,17.4879,0,0,0-1.7948-.35,19.6145,19.6145,0,0,0-1.9535-.1864c-.6688-.0378-1.3451-.0378-2.0265-.0164a34.8317,34.8317,0,0,0-3.9889.31c-1.2683.165-2.45.3552-3.4536.5567-1.0076.1978-3.3893.9258-3.3893.9258l-.029-.1776s1.3616-.4925,3.3654-.9824m16.0752,2.6626a5.9172,5.9172,0,0,0-.6-.2771c-.2141-.0857-.432-.194-.6763-.2683a11.8532,11.8532,0,0,0-1.5782-.4446,17.5185,17.5185,0,0,0-1.8036-.29,18.9256,18.9256,0,0,0-1.9535-.1322c-.6688-.0164-1.3452,0-2.0228.0327a37.614,37.614,0,0,0-3.9725.3879c-1.2645.19-2.4359.3968-3.44.6109-.9988.2154-3.3692.9547-3.3692.9547l-.0289-.1612s1.35-.5038,3.34-1.0278c.995-.2519,2.1638-.5416,3.4347-.7481a37.0737,37.0737,0,0,1,4.014-.45c.69-.0252,1.38-.0289,2.0568-.0037.6776.0289,1.3464.073,1.9862.1637a13.106,13.106,0,0,1,1.8339.3564,13.51,13.51,0,0,1,1.59.524,6.6076,6.6076,0,0,1,.6776.31,4.6635,4.6635,0,0,1,.5857.3225c.3677.2065,1.0491.7015,1.0491.7015l.0076.0982a12.2354,12.2354,0,0,0-1.131-.66" />
  <path fill="#231f20" d="M59.0482.2036H45.5941L32.3567,17.41,28.0706.2036H13.8117L0,52.9544l16.521-11.7651,4.2533-16.3006,3.9146,10.6492c8.5886-8.0445,16.2842-15.2288,16.7855-15.6293,2.2494-1.796,6.6552-2.2054,10.9665-1.5328.8968.3388,2.9359,1.189,3.5682,2.1134L54.5064,17.678Z" />
</svg>
