<?xml version="1.0" encoding="utf-8"?>
<!-- Generator: Adobe Illustrator 25.4.0, SVG Export Plug-In . SVG Version: 6.00 Build 0)  -->
<svg version="1.1" id="Layer_1" xmlns="http://www.w3.org/2000/svg" xmlns:xlink="http://www.w3.org/1999/xlink" x="0px" y="0px"
	 viewBox="0 0 40 40" style="enable-background:new 0 0 40 40;" xml:space="preserve">
<style type="text/css">
	.st0{fill:#5A9636;}
	.st1{fill:#6DAD49;}
	.st2{fill:#C2BFBF;}
</style>
<g>
	<path class="st0" d="M19.8,0.2l1,2c0.2,0.3,0.5,0.7,0.8,1c0.8,0.8,1.8,1.8,2.5,2.8c1.8,2.3,3,4.9,3.9,7.9c0.5,1.8,0.8,3.4,0.8,5.2
		c0.2,5.4-1.8,10-5.4,13.8c-0.7,0.7-1.3,1.1-2,1.6c-0.3,0-0.5-0.3-0.7-0.5c-0.3-0.5-0.5-1-0.5-1.5c-0.2-0.7-0.2-1.3-0.2-2v-0.3
		C20.2,30,19.8,0.3,19.8,0.2L19.8,0.2z"/>
	<path class="st1" d="M19.8,0L19.8,0c-0.2,0.5-0.3,0.8-0.5,1.1c-0.3,0.3-0.7,0.7-1,1c-2,1.6-3.4,3.6-4.6,5.9c-1.6,3-2.5,6.2-2.6,9.7
		C11,19,11.5,23.3,12,24.6c1,3.3,3,6.1,5.4,8.5c0.7,0.7,1.3,1.1,2,1.6c0.2,0,0.2-0.2,0.3-0.3c0.2-0.3,0.2-0.5,0.2-0.8
		c0.2-1.1,0.3-2.1,0.5-3.3L19.8,0L19.8,0z"/>
	<path class="st2" d="M21,35.7c0-0.5,0.3-1,0.5-1.3c-0.3-0.2-0.5-0.3-0.7-0.5c-0.2-0.2-0.2-0.5-0.3-0.7c-0.3-1-0.3-1.8-0.5-2.8V30
		c-0.2,0.2-0.2,0.8-0.2,1c0,1-0.2,2-0.3,3c0,0.3-0.2,0.8-0.3,1.1v0.2c0.3,1.1,0.5,2.3,0.5,3.4v0.5c0,0.5,0,0.5,0.5,0.7
		c0.2,0,0.3,0.2,0.5,0.2c0.2,0,0.2-0.2,0.2-0.2v-0.7v-2C20.8,36.4,21,36.1,21,35.7L21,35.7z"/>
</g>
</svg>
