<?xml version="1.0" encoding="utf-8"?>
<!-- Generator: Adobe Illustrator 25.4.0, SVG Export Plug-In . SVG Version: 6.00 Build 0)  -->
<svg version="1.1" id="Layer_1" xmlns="http://www.w3.org/2000/svg" xmlns:xlink="http://www.w3.org/1999/xlink" x="0px" y="0px"
	 viewBox="0 0 40 40" style="enable-background:new 0 0 40 40;" xml:space="preserve">
<style type="text/css">
	.st0{fill-rule:evenodd;clip-rule:evenodd;fill:#06688D;}
</style>
<g>
	<g>
		<path class="st0" d="M37.3,30.5c-2.2,0-3.9,0-5.6,0.9c-0.4,0-1.3,0-1.3,0.9c0.4,0.4,0.4,0.4,0.4,0.9c0.4,0.4,0.9,1.3,1.3,1.7
			l1.7,1.3c1.3,0.9,2.2,0.9,3.4,1.7c0.4,0.4,1.3,0.9,1.7,1.3c0.4,0.4,0.4,0.4,0.9,0.9l0,0c0-0.4-0.4-0.4-0.4-0.9l-0.9-0.9
			c-0.9-0.9-1.7-2.2-3-2.6c-0.9-0.4-3-1.3-3-2.6l0,0c0.4,0,1.3-0.4,1.7-0.4c0.9-0.4,1.7,0,2.6-0.4l1.3-0.4v-0.4
			c-0.4-0.4-0.9-1.3-1.3-1.7c-1.3-1.3-3-2.6-4.7-3.4c-0.9-0.4-2.2-0.9-3-1.3c-0.4,0-0.9-0.4-1.3-0.4c-0.4-0.4-0.9-1.3-1.3-2.2
			l-0.9-5.2c-0.4-1.3-0.9-2.2-1.3-3C21.8,9.8,17.9,6,13.6,3.8c-0.9-0.4-2.2-0.9-3.4-1.3H8c-0.4,0-0.9-0.9-1.3-0.9
			C5,0.8,1.1-1.4,0.3,1.2C-0.6,3,1.6,4.7,2,5.5C2,6,2.9,6.8,2.9,7.3s0.4,0.9,0.4,1.3L5,12.9c0.4,0.4,0.9,1.3,0.9,1.7
			C6.3,15,6.3,15,6.7,15.4c-0.4,0.4-0.4,1.3-0.4,2.2c-0.9,3-0.4,6.9,0.9,9.5c0.4,0.9,1.7,2.2,3,1.7c1.3-0.4,0.9-2.2,1.3-3.4
			c0-0.4,0-0.4,0-0.9l0,0l1.3,2.2c0.9,1.3,2.2,2.6,3.4,3.9c0.9,0.4,1.3,1.3,2.2,1.7l0,0l0,0c0-0.4-0.4-0.4-0.4-0.4
			c-0.4-0.4-0.9-0.9-1.3-1.7c-1.3-1.7-2.2-3.4-3-5.2c-0.4-0.9-0.9-1.7-1.3-2.6c0-0.4,0-0.9-0.4-0.9c-0.4,0.4-0.9,1.3-1.3,1.7
			c-0.4,1.3-0.4,2.6-0.9,4.3c-0.9,0-1.3-1.3-1.7-1.7c-0.9-2.2-0.9-5.2-0.4-7.3c0-0.4,0.9-2.6,0.9-3s-0.9-0.9-0.9-1.3
			c-0.4-0.4-0.9-1.3-0.9-1.7C6.3,10.7,5.9,9,5,7.7C4.6,6.8,4.2,6.4,3.7,5.5S2.4,4.2,2,3.4C2,3,1.6,2.5,2,2.1c0-0.4,0-0.4,0.4-0.4
			c0.4-0.4,1.3,0,1.7,0.4C5,2.5,5.9,3,6.7,3.4C7.2,3.8,7.6,4.2,8,4.2h0.4c0.9,0,1.7,0,2.6,0.4c1.3,0.4,2.6,1.3,3.9,1.7
			c3.9,2.2,6.5,5.6,8.6,9.5c0.4,0.4,0.4,1.3,0.9,1.7l1.7,3.9c0.4,1.3,1.3,2.6,2.2,3.9c0.4,0.4,2.2,0.9,3,1.3
			c0.4,0.4,1.3,0.4,1.7,0.9l2.6,1.7C35.6,29.2,36.9,29.7,37.3,30.5L37.3,30.5z"/>
		<path class="st0" d="M8.9,6.4c-0.4,0-0.9,0-1.3,0l0,0l0,0C8,6.8,8,7.3,8.5,7.7L8.9,9l0,0c0.4-0.4,0.4-0.9,0.4-1.3
			c0,0,0-0.4-0.4-0.4C9.3,6.8,9.3,6.4,8.9,6.4L8.9,6.4z"/>
	</g>
</g>
</svg>
