<?xml version="1.0" encoding="utf-8"?>
<!-- Generator: Adobe Illustrator 25.4.0, SVG Export Plug-In . SVG Version: 6.00 Build 0)  -->
<svg version="1.1" id="Layer_1" xmlns="http://www.w3.org/2000/svg" xmlns:xlink="http://www.w3.org/1999/xlink" x="0px" y="0px"
	 viewBox="0 0 40 40" style="enable-background:new 0 0 40 40;" xml:space="preserve">
<style type="text/css">
	.st0{fill:#8CC84B;}
</style>
<g>
	<path class="st0" d="M18.4,0.4c1-0.6,2.3-0.6,3.3,0l15,8.4c0.9,0.5,1.6,1.6,1.6,2.7v16.9c0,1.1-0.7,2.2-1.7,2.7l-14.9,8.4
		c-1,0.6-2.3,0.5-3.3-0.1l-4.5-2.6c-0.3-0.2-0.6-0.3-0.9-0.6c0.2-0.3,0.5-0.3,0.8-0.4c0.6-0.2,1.2-0.5,1.8-0.8
		c0.1-0.1,0.3-0.1,0.5,0l3.8,2.2c0.3,0.2,0.5-0.1,0.8-0.2l14.6-8.3c0.2-0.1,0.3-0.3,0.3-0.5V11.6c0-0.2-0.1-0.4-0.3-0.5L20.3,2.7
		c-0.2-0.1-0.4-0.1-0.6,0L4.8,11.1c-0.2,0.1-0.3,0.3-0.3,0.5v16.8c0,0.2,0.1,0.4,0.3,0.5l4,2.2c0.7,0.4,1.7,0.6,2.5,0.3
		c0.7-0.3,1.2-1,1.2-1.8l0-16.7c0-0.2,0.2-0.5,0.5-0.4h1.9c0.3,0,0.4,0.3,0.4,0.5l0,16.8c0,1.5-0.6,3.1-2,3.8
		c-1.7,0.9-3.8,0.7-5.5-0.2l-4.3-2.4c-1-0.5-1.7-1.6-1.7-2.7V11.5c0-1.1,0.6-2.1,1.6-2.7L18.4,0.4z M22.7,12.2
		c2.2-0.1,4.5-0.1,6.4,1c1.5,0.8,2.3,2.5,2.4,4.2c0,0.2-0.3,0.4-0.5,0.3c-0.6,0-1.3,0-1.9,0c-0.3,0-0.4-0.2-0.5-0.5
		c-0.2-0.8-0.6-1.6-1.4-2c-1.2-0.6-2.5-0.6-3.8-0.5c-0.9,0.1-1.9,0.1-2.7,0.7c-0.6,0.4-0.8,1.3-0.6,1.9c0.2,0.5,0.8,0.6,1.2,0.8
		c2.6,0.7,5.4,0.6,7.9,1.5c1.1,0.4,2.1,1.1,2.5,2.2c0.5,1.5,0.3,3.3-0.8,4.5c-0.9,1-2.1,1.5-3.4,1.8c-1.7,0.4-3.4,0.4-5.1,0.2
		c-1.6-0.2-3.2-0.6-4.5-1.7c-1-0.9-1.6-2.3-1.5-3.7c0-0.2,0.2-0.4,0.5-0.4H19c0.3,0,0.4,0.2,0.5,0.4c0.1,0.8,0.4,1.6,1.1,2
		c1.3,0.8,2.9,0.8,4.4,0.8c1.2-0.1,2.6-0.1,3.6-0.9c0.5-0.5,0.7-1.2,0.5-1.9c-0.2-0.6-0.8-0.8-1.3-1c-2.6-0.8-5.4-0.5-7.9-1.4
		c-1-0.4-2-1.1-2.4-2.1c-0.6-1.5-0.3-3.4,0.9-4.5C19.4,12.7,21.1,12.3,22.7,12.2L22.7,12.2z"/>
</g>
</svg>
