<?xml version="1.0" encoding="utf-8"?>
<!-- Generator: Adobe Illustrator 25.4.0, SVG Export Plug-In . SVG Version: 6.00 Build 0)  -->
<svg version="1.1" id="Layer_1" xmlns="http://www.w3.org/2000/svg" xmlns:xlink="http://www.w3.org/1999/xlink" x="0px" y="0px"
	 viewBox="0 0 40 40" style="enable-background:new 0 0 40 40;" xml:space="preserve">
<style type="text/css">
	.st0{fill:#CF649A;}
</style>
<path class="st0" d="M34.4,22.6c-1.4,0-2.6,0.4-3.6,0.9c-0.4-0.7-0.7-1.4-0.9-1.9c-0.1-0.6-0.1-0.9-0.1-1.6c0.1-0.6,0.5-1.6,0.5-1.7
	s-0.1-0.4-0.9-0.4c-0.7,0-1.5,0.1-1.6,0.4c-0.1,0.4-0.2,0.7-0.4,1.2c-0.1,0.7-1.6,3.4-2.5,4.7c-0.2-0.5-0.5-1-0.5-1.4
	c-0.1-0.6-0.1-0.9-0.1-1.6c0.1-0.6,0.5-1.6,0.5-1.7s-0.1-0.4-0.9-0.4c-0.7,0-1.5,0.1-1.6,0.4c-0.1,0.2-0.1,0.7-0.4,1.2
	c-0.1,0.5-2.1,4.9-2.6,6c-0.2,0.6-0.5,1-0.6,1.4c-0.1,0.4,0,0,0,0l-0.2,0.4l0,0c-0.1,0.2-0.2,0.4-0.2,0.4s-0.1-0.5,0-1.2
	c0.2-1.5,1-3.9,1-4c0,0,0.1-0.5-0.5-0.6c-0.6-0.2-0.7,0.1-0.9,0.1l-0.1,0.1c0,0,0.6-2.6-1.2-2.6c-1.1,0-2.7,1.2-3.5,2.4l-4,2.1
	L9.1,25c-2.2-2.4-6.3-4.1-6.2-7.2c0-1.1,0.5-4.2,7.9-8c6.1-3,10.9-2.2,11.8-0.4c1.2,2.6-2.6,7.6-8.9,8.2c-2.4,0.2-3.7-0.6-4-1
	c-0.4-0.4-0.4-0.4-0.5-0.4c-0.2,0.1-0.1,0.5,0,0.6c0.1,0.5,1,1.4,2.2,1.7c1.1,0.4,4,0.6,7.4-0.7c3.8-1.5,6.8-5.6,5.9-9.1
	C23.9,5.3,18.1,4.2,12.6,6c-3.2,1.1-6.8,3-9.3,5.4c-3,2.9-3.5,5.4-3.3,6.4c0.7,3.6,5.7,6.1,7.8,7.8l-0.2,0.1c-1,0.5-4.8,2.5-5.8,4.6
	c-1.1,2.4,0.1,4.1,1,4.4c2.6,0.7,5.2-0.6,6.7-2.7s1.2-5,0.6-6.2l0,0l0.7-0.5c0.5-0.2,1-0.5,1.5-0.9c-0.2,0.6-0.4,1.5-0.5,2.6
	c-0.1,1.4,0.5,3.1,1.2,3.9c0.4,0.2,0.7,0.4,1,0.4c0.9,0,1.2-0.7,1.6-1.6c0.5-1,1-2.2,1-2.2s-0.6,3.2,1,3.2c0.6,0,1.1-0.7,1.5-1.1
	l0,0c0,0,0,0,0-0.1s0.1-0.1,0.1-0.1l0,0c0.2-0.4,0.7-1.4,1.5-2.9c1-2,2-4.5,2-4.5s0.1,0.6,0.4,1.6c0.1,0.6,0.5,1.2,0.9,1.9l-0.4,0.5
	l0,0c-0.1,0.2-0.4,0.5-0.6,0.7c-0.7,1-1.7,2-1.9,2.4c-0.1,0.4-0.1,0.6,0.1,0.9c0.2,0.1,0.6,0.1,1,0.1c0.7,0,1.2-0.2,1.5-0.4
	c0.5-0.1,0.9-0.4,1.2-0.6c0.7-0.6,1.2-1.4,1.2-2.5c0-0.6-0.2-1.2-0.5-1.7l0.2-0.4c1.2-1.7,2.2-3.7,2.2-3.7s0.1,0.6,0.4,1.6
	c0.1,0.5,0.5,1.1,0.7,1.6c-1.1,1-1.9,2-2.1,2.7c-0.5,1.4-0.1,1.9,0.6,2.1c0.2,0,0.7-0.1,1.1-0.2c0.4-0.1,0.9-0.4,1.4-0.7
	c0.7-0.6,1.5-1.4,1.5-2.5c0-0.5-0.1-1-0.4-1.5c1-0.4,2.2-0.6,3.8-0.5c3.5,0.4,4.1,2.6,4,3.5c-0.1,0.9-0.9,1.4-1.1,1.6
	c-0.2,0.1-0.4,0.2-0.2,0.4c0,0.1,0.1,0.1,0.4,0.1s1.9-0.7,1.9-2.4C40,24.8,37.9,22.6,34.4,22.6L34.4,22.6z M7.8,31.6
	c-1.1,1.2-2.7,1.7-3.5,1.4c-0.7-0.4-0.5-2.2,1-3.6c0.9-0.9,2-1.6,2.7-2l0.7-0.4h0.1l0.1-0.1C9.5,28.6,9.1,30.3,7.8,31.6L7.8,31.6z
	 M16.1,25.8c-0.4,1-1.2,3.5-1.7,3.4c-0.5-0.1-0.7-2-0.1-3.9c0.4-1,1-2.1,1.4-2.5c0.6-0.7,1.4-1,1.5-0.6
	C17.3,22.6,16.4,25.3,16.1,25.8L16.1,25.8z M23,29.2c-0.1,0.1-0.4,0.1-0.4,0.1l0.1-0.1c0,0,0.9-0.9,1.2-1.4l0.6-0.9v0.1
	C24.5,28.2,23.4,28.9,23,29.2L23,29.2z M28.2,27.9c-0.1-0.1-0.1-0.4,0.4-1.2c0.1-0.4,0.5-1,1.2-1.5c0.1,0.2,0.1,0.5,0.1,0.6
	C29.8,27.2,28.9,27.7,28.2,27.9L28.2,27.9z"/>
</svg>
