<?xml version="1.0" encoding="utf-8"?>
<!-- Generator: Adobe Illustrator 25.4.0, SVG Export Plug-In . SVG Version: 6.00 Build 0)  -->
<svg version="1.1" id="Layer_1" xmlns="http://www.w3.org/2000/svg" xmlns:xlink="http://www.w3.org/1999/xlink" x="0px" y="0px"
	 viewBox="0 0 40 40" style="enable-background:new 0 0 40 40;" xml:space="preserve">
<style type="text/css">
	.st0{fill-rule:evenodd;clip-rule:evenodd;fill:url(#SVGID_1_);}
</style>
<g>
	
		<linearGradient id="SVGID_1_" gradientUnits="userSpaceOnUse" x1="-1.2699" y1="16.6886" x2="38.6448" y2="83.2129" gradientTransform="matrix(1 0 0 1 1.333 -30)">
		<stop  offset="0" style="stop-color:#2383AF"/>
		<stop  offset="1" style="stop-color:#7BC5B1"/>
	</linearGradient>
	<path class="st0" d="M10,16.1C11.4,10.7,14.6,8,20,8c8.1,0,8.9,6,13,7c2.7,0.7,5-0.3,7-2.9c-1.4,5.3-4.6,8.1-10,8.1
		c-8.1,0-8.9-6-13-7C14.3,12.3,12.1,13.3,10,16.1L10,16.1z M0,27.9c1.4-5.3,4.6-8.1,10-8.1c8.1,0,8.9,6,13,7c2.7,0.7,5-0.3,7-2.9
		C28.5,29.3,25.3,32,20,32c-8.1,0-8.9-6-13-7C4.3,24.3,1.9,25.3,0,27.9z"/>
</g>
</svg>
