<?xml version="1.0" encoding="utf-8"?>
<!-- Generator: Adobe Illustrator 25.4.0, SVG Export Plug-In . SVG Version: 6.00 Build 0)  -->
<svg version="1.1" id="Layer_1" xmlns="http://www.w3.org/2000/svg" xmlns:xlink="http://www.w3.org/1999/xlink" x="0px" y="0px"
	 viewBox="0 0 40 40" style="enable-background:new 0 0 40 40;" xml:space="preserve">
<style type="text/css">
	.st0{fill:#555555;}
	.st1{fill:#F2F2F2;}
</style>
<g>
	<path class="st0" d="M6,0h28c3.3,0,6,2.7,6,6v28c0,3.3-2.7,6-6,6H6c-3.3,0-6-2.7-6-6V6C0,2.7,2.7,0,6,0z"/>
	<path class="st1" d="M32,26.1c0,0-0.8,2.3-2.3,4.6c-0.4,0.7-2.3,3.4-4.5,3.4c-1.6,0-2.7-1.2-4.8-1.2c-2.6,0-3.6,1.2-5.2,1.2
		c-0.9,0.1-1.7-0.4-2.7-1.2c-6-5.7-6.3-14.1-4.1-17.6c1.4-2.3,3.8-3.7,6.3-3.8c2,0,4.2,1.3,5.1,1.3c0.6,0,3.9-1.6,5.8-1.4
		c2.6,0.2,4.4,1.2,5.7,3C27.4,16.2,26.1,23.5,32,26.1z M25.7,4.4c0.6,2.5-2.1,7.3-6.2,7C19.3,8,22.2,4.6,25.7,4.4z"/>
</g>
</svg>
