<?xml version="1.0" encoding="utf-8"?>
<!-- Generator: Adobe Illustrator 27.0.0, SVG Export Plug-In . SVG Version: 6.00 Build 0)  -->
<svg version="1.1" id="Layer_1" xmlns="http://www.w3.org/2000/svg" xmlns:xlink="http://www.w3.org/1999/xlink" x="0px" y="0px"
	 viewBox="0 0 627 627" style="enable-background:new 0 0 627 627;" xml:space="preserve">
<style type="text/css">
	.st0{fill:#2D4C91;}
	.st1{fill:#425D9C;}
	.st2{fill:#FFFFFF;}
</style>
<g>
	<path class="st0" d="M313.5,626.2c172.9,0,313.1-140.2,313.1-313.1S486.4,0,313.5,0S0.4,140.2,0.4,313.1S140.6,626.2,313.5,626.2z"
		/>
	<path class="st1" d="M534.8,534.2c-56.7,56.7-135,91.8-221.3,91.8C140.6,625.9,0.4,485.7,0.4,312.8c0-86.4,35.1-164.7,91.8-221.3
		L534.8,534.2L534.8,534.2z"/>
	<path class="st2" d="M75.8,354.3c8.7,0,13.6-5.8,13.6-14c0-8.3-4.9-13.8-13.6-13.8s-13.6,5.8-13.6,13.8S66.9,354.3,75.8,354.3z
		 M126.1,352.3h19.4V225h1l82.2,127.2h22V191.5H231v128h-1l-82.2-127.9h-21.8C126.1,191.6,126.1,352.3,126.1,352.3z M296.8,352.3
		h103.3v-18.1h-83.4v-55.6h76.2v-18.4h-76.2v-50.3h83.4v-18.4H296.8V352.3L296.8,352.3z M471.8,352.3H492V209.9h49.8v-18.4H422.1
		v18.4H472L471.8,352.3L471.8,352.3z M188.6,477.5h8.7v-58.9h0.4l26,46.4h1l26-46h0.4v58.5h8.7v-73.1h-10.5L224.6,449h-0.7
		l-24.7-44.5h-10.8v73.1H188.6z M311.1,404.4h-11.2l-26.8,72v1h9.4l6.8-19.1h31.9l6.8,19.1h9.7v-1L311.1,404.4L311.1,404.4z
		 M292.3,450.3l12.8-35.7h0.4l12.8,35.7H292.3z M376.2,478.5c17.5,0,27.9-10,27.9-26.7v-47.2H395v47c0,11.3-6.1,18.6-18.8,18.6
		c-12.7,0-18.7-7.3-18.7-18.6v-47h-9.1v47.2C348.4,468.6,359.1,478.5,376.2,478.5z M424.1,477.5h9.1v-73.1h-9.1V477.5z"/>
</g>
</svg>
